###############################################################################
# Name    : Hand (low poly)
# Author  : scribbletoad
# License : CC Attribution
# Link    : https://skfb.ly/Dr9p
# Converted from .fbx to .obj via ImageToStl.com
###############################################################################

# Plane005_0
o obj1
v -212.59944725 465.43328509 5.8491384
v -216.20784569 466.51217445 -2.92217032
v -220.91686058 458.62865974 -1.0368662
v -216.32079124 458.44067002 7.82840438
v -221.64266014 459.21313381 -9.68765632
v -216.77074242 467.56005807 -12.32344388
v -220.12724876 461.54541106 -21.10316898
v -215.55226707 467.30737409 -21.95829919
v -222.60567284 457.72241214 -15.76783005
v -222.41588402 457.5365598 -13.95376511
v -203.43901634 456.71615232 7.08022753
v -201.27422142 458.68535989 8.25554752
v -202.46495628 465.00429892 9.36464126
v -206.17879295 462.77752282 9.23243875
v -203.51991844 484.84429788 -6.73277143
v -210.19386864 475.10265943 -5.09752102
v -207.04405785 474.74294746 2.71296667
v -199.53114891 483.95080317 -0.27404851
v -205.17738914 485.16433716 -15.58006142
v -211.75087547 475.32055639 -14.00329987
v -205.25331688 482.22628933 -24.6896448
v -210.08409691 474.80679445 -23.17481446
v -194.45860863 467.85296142 14.41743714
v -196.94502831 474.00664902 7.81032716
v -199.42931175 463.63262482 12.54833779
v -218.55083275 449.32284117 10.75381412
v -220.74358177 441.3581801 13.39799694
v -216.38381004 441.26247655 15.98766329
v -213.63448143 449.48092179 13.43179076
v -213.89711571 439.51427766 12.45666287
v -210.63857079 446.31994199 10.80846871
v -199.75780296 458.36504702 10.51541609
v -194.43895531 465.66704807 16.07311458
v -198.72621727 461.42986567 14.72477671
v -198.94093895 457.49627238 11.90957908
v -195.65715599 457.59240347 7.50735932
v -195.41545677 456.30651453 9.15810451
v -187.68892479 466.40343811 10.65635902
v -188.22856712 464.07830349 12.80148498
v -187.57066917 462.45043613 4.84221424
v -189.07283592 459.92065037 8.54969903
v -221.57439232 440.40429277 9.65451038
v -219.42571068 446.64916628 6.79192824
v -215.70229149 446.66320476 4.37051672
v -215.80010033 445.08474379 6.05839412
v -219.0889492 448.12447781 5.25469512
v -217.49080467 438.21120684 17.09785223
v -221.60570335 438.32982907 14.57671692
v -214.83324242 437.11895275 13.73187953
v -222.41954613 437.44848208 10.52311456
v -218.13481712 439.16765974 7.95713965
v -218.7460537 436.77801114 8.99648214
v -218.05202293 435.27779612 17.54644489
v -221.98662376 435.53277085 15.29564385
v -215.6026516 434.22634407 13.95950205
v -222.57781029 434.40432303 11.21518979
v -219.32912254 433.58422434 10.07570716
v -219.32500267 429.70366882 18.17636494
v -222.68681908 430.02013643 16.19342241
v -217.43486595 428.9771984 14.96460335
v -223.35201073 429.27831579 12.20832631
v -219.64455223 428.79058403 11.13026227
v -196.88490868 481.70959163 3.47194188
v -187.16750145 482.01263221 -2.87281038
v -193.47063255 487.98415927 -2.62888527
v -197.18907738 494.38497971 -18.40637293
v -200.83305931 489.36120635 -17.36809708
v -197.49919701 490.09646493 -8.59232629
v -193.08458519 495.31518464 -9.98322176
v -198.1250515 490.43939375 -25.72467382
v -201.96486473 486.15365767 -25.75049048
v -188.18697166 473.53054474 5.01282075
v -219.39800072 428.17385309 18.52905634
v -223.13374901 428.47179655 16.42630561
v -217.59285545 427.49907947 15.14679496
v -223.74568748 427.64275665 12.57418222
v -220.10198021 427.19356861 11.36821901
v -219.69701195 426.92025197 18.81394155
v -223.26933861 427.1814523 16.49084817
v -217.81819725 426.15874736 15.60525269
v -223.63396263 426.30498811 12.47818324
v -220.43562889 425.79287276 11.68737543
v -219.93819237 423.2001897 18.90387243
v -223.28075218 424.99312829 16.7041428
v -218.56575584 422.36248256 16.56095771
v -224.14000511 423.12057027 13.18480198
v -221.39009666 422.35708165 12.27066688
v -220.427145 417.45760583 16.71684451
v -220.60066795 418.52150925 19.0749761
v -224.57994652 418.43334476 14.23362171
v -222.45241356 417.57931035 14.14185522
v -193.84700584 457.44793138 18.99416426
v -198.38411522 454.44079054 17.33834865
v -197.37788963 452.99462405 14.25135043
v -194.17430687 451.1448928 13.06204387
v -189.22978783 456.11815879 16.82945305
v -190.761343 452.37169935 13.59036056
v -218.36479759 453.88045849 9.93643968
v -218.56395531 454.58245523 4.5158103
v -211.93901634 452.23128819 12.26297941
v -210.19600487 457.06621892 10.37242577
v -219.49907494 454.88607492 2.59548793
v -220.20857811 448.38912652 3.59878467
v -223.99422264 451.07070672 -0.1783145
v -223.92217064 448.82311835 -4.71241826
v -222.56978416 455.22540105 -4.61337242
v -222.90660667 455.81689305 -6.46497487
v -226.39018822 453.03250025 -9.57983586
v -223.91817284 449.19048919 -6.14958251
v -224.99278831 451.71801737 -14.27553005
v -224.66826439 451.32962044 -16.03468157
v -225.31630516 454.5151376 -20.96526119
v -218.1040554 460.70050219 -26.01609484
v -213.65260887 466.07007014 -26.49455237
v -223.12996483 453.30581824 -25.29439346
v -216.88451195 446.09890463 1.8629292
v -218.62892723 421.84887216 13.88533659
v -220.89446068 416.70385241 15.19763548
v -218.46761131 425.78368674 13.10236108
v -218.1222744 427.10634913 12.85108338
v -218.1144619 428.69250033 12.36408031
v -216.56471825 433.20357841 11.1407
v -216.10085106 436.07195621 10.4760505
v -215.43996239 438.48519494 9.19447856
v -212.57811546 444.83135612 7.4249388
v -223.3578701 416.67974325 16.89656241
v -224.27739525 421.86077384 14.91489859
v -223.32903099 422.70989463 16.78936658
v -221.70329857 421.77895565 18.3747508
v -224.06621361 416.48015814 17.78365878
v -224.67287254 416.88671364 15.8228396
v -222.01769066 417.18541918 18.93516722
v -215.62346458 447.0007303 -2.55891132
v -211.15547752 447.85592301 5.95041575
v -219.2875576 446.59954673 -5.67695529
v -219.69545555 447.30999635 -8.13586707
v -209.2556057 473.07003988 -28.05383162
v -215.26521873 458.6833514 -26.52672673
v -210.74498558 464.47857853 -27.02012826
v -220.53188133 450.62262123 -25.35778845
v -205.66567039 470.81924644 -28.16721814
v -220.24278831 448.09469656 -18.69609147
v -220.78594017 448.56832878 -15.09139894
v -206.16246605 453.34960552 8.08330163
v -208.70183372 449.13235069 9.27289711
v -206.18092918 452.86498738 1.96313477
v -208.34911156 453.50042541 -4.26982583
v -217.77980614 448.60885568 -12.35027192
v -224.4531765 446.55410504 0.56331723
v -227.02376366 436.61864947 2.05859111
v -223.50255394 435.81194733 5.04287251
v -220.70778465 445.25796198 3.4883277
v -219.44548607 434.37557692 2.32281575
v -217.96962547 443.75704673 1.79897351
v -227.32445335 435.86785671 -2.16775599
v -224.32716942 445.98577693 -4.02247064
v -220.54665184 444.55492989 -4.79015676
v -224.28023338 432.92583882 5.70547161
v -227.69890404 433.89172066 2.68445469
v -221.11553001 431.65362247 2.95611608
v -227.97145653 433.15057144 -1.52868401
v -222.7354641 434.68203531 -2.99444113
v -223.39375877 431.98702789 -2.43024117
v -224.52928734 430.11693991 5.64099132
v -227.90071678 431.138852 2.75897245
v -221.36809349 428.91283877 3.04227058
v -228.03575706 430.09756241 -1.54904927
v -223.6280117 429.03848049 -2.17979438
v -224.49324608 425.63549456 5.83299766
v -227.7036953 426.06200871 2.92172186
v -221.94969749 425.1023224 3.0697434
v -227.49272728 425.51113657 -1.14025371
v -223.63072777 425.1380287 -1.42459844
v -224.94115257 424.15340838 5.82520971
v -228.15312767 424.49682315 2.99070087
v -222.44573021 423.67889104 2.87955763
v -227.91621971 423.85290289 -0.93372627
v -224.09032249 423.52377088 -1.35484696
v -225.26396751 422.88238174 5.98845757
v -228.26875877 423.20257266 2.97205251
v -222.73134422 422.31353454 3.22432402
v -227.75514793 422.52352669 -1.05845278
v -224.45073509 422.10336069 -1.17158532
v -225.05840111 419.12783465 5.84641479
v -227.94460106 420.85757143 3.03925375
v -223.67351341 418.16720265 3.85280998
v -228.01161766 419.03698487 -0.60646799
v -225.57002831 418.16415167 -0.92075818
v -224.96452904 413.45336609 3.15379455
v -226.12300682 414.28280298 5.39088384
v -228.42873192 414.12917838 -0.0324484
v -226.43001366 413.56561022 0.22349957
v -223.17723656 417.71227754 1.21325302
v -225.08965111 412.71883876 1.56124415
v -222.82719994 422.05462383 0.62764238
v -222.46791649 423.39385725 0.50989434
v -222.05666161 424.93804672 0.37503741
v -222.15947533 428.21337646 -0.54251691
v -221.87773705 431.02016967 -0.54347203
v -220.30019188 433.89224011 -1.28678821
v -217.55705833 444.47491238 -2.25055259
v -228.29027367 412.89114077 3.0028507
v -228.50923729 417.65881079 0.95699691
v -227.98833275 418.49676211 2.99627126
v -226.68678856 417.58498813 4.86553762
v -228.8483181 412.19302063 3.19394594
v -228.92009544 412.76141081 1.40956607
v -227.54942894 412.85375647 4.69855038
v -227.0280056 448.67233179 -9.59479591
v -228.21697044 438.81606962 -9.83533325
v -226.25517845 438.1390671 -6.33820487
v -225.06734276 447.07137912 -6.40208529
v -221.99355125 437.34490854 -8.6640202
v -220.80534935 445.6303089 -8.47537826
v -228.22798729 438.26538056 -13.70759248
v -226.28362083 448.99160736 -13.67664019
v -221.96294212 447.38760356 -14.30164426
v -226.54082298 435.73916475 -6.30875199
v -229.00716209 436.0232229 -9.54101932
v -222.75987816 434.86038094 -8.53111656
v -228.71651268 435.45742766 -13.6338186
v -224.20607567 437.57586646 -14.08169042
v -224.91319847 434.94744844 -13.76469141
v -227.07094383 432.9559311 -6.27347793
v -229.73955345 433.4052419 -9.30367977
v -223.5418911 432.26159552 -8.46205188
v -229.28447533 432.49920618 -13.35669849
v -225.71031761 432.01342736 -13.28498226
v -227.55202293 427.84158176 -6.37152888
v -229.86214256 427.49383444 -9.36026796
v -224.5134182 428.17147718 -8.87957689
v -229.39931297 427.32693445 -13.34003864
v -225.77638817 427.96240195 -13.14603067
v -227.4219265 426.41967625 -6.42715885
v -229.88835716 425.97424216 -9.36581859
v -224.54659081 426.82092178 -8.96006722
v -229.38731956 425.72473106 -13.21903098
v -225.84682274 426.45230066 -13.28635264
v -227.25377464 425.16436619 -6.42786
v -229.67793846 424.78979392 -9.42405919
v -224.54482079 425.46774183 -8.85890548
v -228.87950706 424.43566857 -13.24443899
v -225.78786278 425.02420003 -13.04310108
v -226.37990379 421.58685161 -6.85995325
v -229.20729637 422.60330103 -9.57120101
v -224.44841576 421.55706674 -8.63767943
v -228.64040184 421.23919637 -13.03844395
v -225.87840843 421.43148765 -13.18410622
v -224.94255638 416.95748801 -9.39532483
v -226.29405785 417.22894154 -7.36934956
v -228.08989525 416.86276199 -12.7445003
v -226.18752098 416.85391184 -12.39318576
v -223.75362206 421.48031543 -11.06372963
v -224.79475975 416.39111252 -10.91367362
v -224.42729759 425.33187796 -11.27509947
v -224.42415428 426.62799003 -11.32632873
v -224.42329979 428.12155083 -11.38476584
v -223.67336082 431.68707208 -11.44384347
v -222.84148216 434.45150693 -11.66622175
v -221.90044212 437.25979551 -11.65101305
v -219.93062401 446.71527035 -11.6120377
v -227.28349876 415.4647513 -10.04527892
v -228.84822655 419.76138243 -11.70195928
v -228.69139671 420.48748684 -9.73703339
v -227.41881371 419.86553831 -7.96390785
v -228.1174221 414.83001614 -9.70422983
v -228.28783226 415.40475398 -11.51921882
v -227.19505882 415.63897585 -8.1862577
v -225.83385277 450.07159515 -21.16906593
v -227.33305931 445.3455821 -21.94735459
v -225.61375999 444.02679497 -18.82039023
v -224.9688015 448.55670201 -17.68167947
v -222.09648705 443.42224207 -20.81759988
v -221.22459984 446.48797681 -20.10224637
v -226.90440941 446.04715134 -25.89684597
v -225.04567528 450.60730138 -25.20634115
v -222.22737694 448.22885292 -25.40766028
v -225.97456932 441.92800967 -19.44836985
v -228.00707054 443.488557 -22.28659401
v -222.53917503 441.22033789 -21.54962729
v -227.62126732 444.06906302 -26.24300718
v -223.95683861 445.32373221 -26.25176743
v -224.98229027 443.53128233 -26.6647869
v -226.66905785 439.73306345 -19.88930916
v -228.77028465 441.36044425 -22.53530499
v -223.56114769 439.0267345 -22.31020199
v -228.07698631 441.97778498 -26.48202882
v -224.89262962 441.25097837 -26.68045042
v -226.99419212 434.80148407 -21.15713032
v -229.45064354 435.59427011 -23.60984702
v -224.38854027 435.34475833 -23.24255656
v -229.22566795 436.43005561 -27.22577363
v -225.88429832 436.60739329 -27.39571836
v -226.89827538 433.29846288 -21.45956358
v -229.65447044 434.00814954 -23.83668062
v -224.50926781 434.04477059 -23.56896135
v -229.39912987 434.73355295 -27.36065206
v -226.09193993 434.98007399 -27.63405328
v -227.04771996 432.18225197 -21.64154962
v -229.57820702 432.87436051 -24.03389875
v -224.75780296 432.7566847 -23.83883422
v -229.0340786 433.75219922 -27.54001547
v -226.25871849 433.7326375 -27.83674552
v -226.69002342 429.48101918 -22.38933944
v -229.36665916 431.10473779 -24.50946781
v -224.9899807 429.55331559 -24.06427
v -229.21208763 430.32831012 -27.90106759
v -226.66222191 430.2462484 -28.23452555
v -225.84401512 425.55581823 -25.23420779
v -227.12007713 425.58896003 -23.47153536
v -229.08006859 426.26053061 -28.11316923
v -227.30830956 426.00696003 -27.94773539
v -224.5632534 429.75464045 -26.46174235
v -226.0599575 425.20993227 -26.94235871
v -224.83589745 433.21139699 -26.15275131
v -224.6625576 434.37463548 -25.91562191
v -224.46520042 435.71539471 -25.64158909
v -223.32008934 439.6766678 -24.98254418
v -222.66924095 441.46234279 -24.66685671
v -221.96178246 444.21002333 -23.86304042
v -219.84273338 446.69378785 -23.1299048
v -228.38475609 424.48513965 -26.06375966
v -229.46404076 428.79904359 -26.85030948
v -229.11675072 429.1478592 -24.97311978
v -227.89211082 428.18322884 -23.53423711
v -229.19319725 423.93890547 -25.76496214
v -229.32839012 424.76532171 -27.16236953
v -228.16304588 424.35363913 -24.3483113
v -217.09459496 448.64898806 -23.2134597
v -210.99416161 454.00979574 -13.09280949
v -213.35548973 455.33111705 -23.70939024
v -201.1936245 458.2965364 2.29154294
v -196.76823997 457.52517379 4.16577988
v -204.89580345 460.11343348 -13.35908867
v -208.19798851 461.41540667 -24.14954618
v -192.65703392 459.73885879 -1.45007498
v -200.68193626 460.92248351 -4.2248007
v -196.65263939 464.83572303 -10.35571857
v -199.25603294 465.45230115 -16.3293303
v -194.06728172 471.26886039 -18.80283819
v -192.31996727 470.65515111 -13.97274586
v -187.56981468 478.00231673 0.46636801
v -185.87257957 466.32439942 -0.63013811
v -185.65984154 472.14373624 -6.00042601
v -190.46449852 462.96252299 -6.81810024
v -194.583395 485.84018151 -28.26068913
v -198.85548973 482.27356154 -27.66114137
v -182.3995266 499.66321093 -33.46777153
v -176.73256493 496.40625216 -28.79534775
v -188.52211571 482.48941167 -23.37272733
v -189.36150169 507.60748417 -23.26437249
v -187.97615623 505.28586064 -30.83084778
v -185.86430931 507.72311349 -12.33289874
v -180.6512661 504.44702009 -6.98456973
v -188.44148827 492.09927198 -5.12278871
v -173.03630638 498.76101598 -10.22768798
v -183.59914207 486.56484834 -6.28816437
v -171.76418114 495.5648811 -20.02325888
v -184.08785057 482.91934176 -13.83777319
v -201.75957298 474.7526514 6.74701666
v -188.70842552 454.60540219 18.33179503
v -193.40233421 455.52446922 20.51748701
v -190.61275291 450.98412587 15.09453171
v -198.42732811 453.09911546 19.04168324
v -197.60884666 450.30156955 16.11375958
v -188.53334618 453.11504559 19.29599003
v -193.14977074 453.564264 21.36444103
v -190.0464077 449.32335906 16.36627712
v -198.25591087 451.51012605 19.96575524
v -196.94527245 448.55523152 16.93897177
v -188.28240013 449.06377565 21.82640014
v -193.02980614 451.20641469 22.52562305
v -189.58965111 446.00850868 19.59401973
v -197.24144554 448.19335302 23.42682572
v -195.96190453 445.47509175 20.72350954
v -189.4755764 443.17324172 24.76713786
v -188.5184536 445.18377017 25.47107572
v -195.4531765 444.34111859 26.77687316
v -194.88545799 443.22069645 25.40855251
v -192.74278831 443.21923251 19.83791194
v -192.09166527 442.15410704 25.76794259
v -193.54506493 447.02453098 16.04016972
v -193.89247704 449.15899166 14.66556489
v -192.09264183 444.1823355 27.60814907
v -195.44292259 448.15966137 24.96319504
v -192.460989 449.06145589 24.3980249
v -189.76769066 448.39434171 23.91035389
v -191.65825462 444.90734139 28.90020241
v -194.22240257 444.52715349 28.36028536
v -189.38850975 445.18511259 27.63562268
v -187.30089378 476.41241401 -12.25090883
v -203.64949608 478.96219079 -28.25904802
v -192.38350487 477.67251675 -20.9835775
v -198.27580833 475.70324884 -26.42264947
v -187.85945702 468.50384417 -9.11685593
v -198.21388817 470.70819212 -22.93554778
v -203.18907738 466.46508942 -24.97328727
v -193.70067406 478.20440342 4.80106576
vn -0.7545 0.52862 0.38896
vn -0.7545 0.52862 0.38896
vn -0.84269 0.52749 0.10786
vn -0.83589 0.54618 -0.0546
vn -0.83589 0.54618 -0.0546
vn -0.85981 0.5105 0.01101
vn -0.02704 -0.26266 0.96451
vn -0.02704 -0.26266 0.96451
vn -0.02704 -0.26266 0.96451
vn -0.68579 0.61019 0.39668
vn -0.68579 0.61019 0.39668
vn -0.68579 0.61019 0.39668
vn -0.80463 0.57097 0.16299
vn -0.80463 0.57097 0.16299
vn -0.80463 0.57097 0.16299
vn -0.80463 0.57097 0.16299
vn -0.83588 0.52153 -0.17121
vn -0.83588 0.52153 -0.17121
vn -0.58567 0.44858 0.67511
vn -0.58567 0.44858 0.67511
vn -0.58567 0.44858 0.67511
vn -0.45557 0.3954 0.79756
vn -0.45557 0.3954 0.79756
vn -0.45557 0.3954 0.79756
vn -0.45557 0.3954 0.79756
vn 0.70827 -0.0872 0.70053
vn 0.70827 -0.0872 0.70053
vn 0.70827 -0.0872 0.70053
vn -0.78099 -0.21694 0.58565
vn -0.78099 -0.21694 0.58565
vn -0.63034 0.44911 0.63322
vn -0.63034 0.44911 0.63322
vn -0.63034 0.44911 0.63322
vn -0.94473 -0.10743 0.30974
vn -0.94473 -0.10743 0.30974
vn -0.49074 -0.78255 -0.38315
vn -0.49074 -0.78255 -0.38315
vn -0.49074 -0.78255 -0.38315
vn 0.49719 0.52482 0.69091
vn 0.49719 0.52482 0.69091
vn 0.96021 -0.2472 0.12993
vn 0.96021 -0.2472 0.12993
vn 0.96021 -0.2472 0.12993
vn -0.94753 0.31357 0.06212
vn -0.94753 0.31357 0.06212
vn -0.42206 -0.62921 -0.65265
vn -0.42206 -0.62921 -0.65265
vn -0.42206 -0.62921 -0.65265
vn -0.4558 0.43911 0.77422
vn -0.4558 0.43911 0.77422
vn 0.79467 -0.03262 0.60616
vn 0.79467 -0.03262 0.60616
vn 0.79467 -0.03262 0.60616
vn -0.94191 0.31161 0.12534
vn -0.94191 0.31161 0.12534
vn -0.94191 0.31161 0.12534
vn -0.44713 -0.19014 -0.87402
vn -0.44713 -0.19014 -0.87402
vn -0.44713 -0.19014 -0.87402
vn -0.48507 0.25045 0.83784
vn -0.48507 0.25045 0.83784
vn -0.48507 0.25045 0.83784
vn 0.78495 -0.10848 0.60999
vn 0.78495 -0.10848 0.60999
vn 0.78495 -0.10848 0.60999
vn -0.98246 0.12427 0.139
vn -0.98246 0.12427 0.139
vn -0.98246 0.12427 0.139
vn -0.39027 -0.20828 -0.89683
vn -0.39027 -0.20828 -0.89683
vn -0.47949 0.20298 0.85375
vn -0.47949 0.20298 0.85375
vn -0.47949 0.20298 0.85375
vn -0.47949 0.20298 0.85375
vn 0.81529 -0.14939 0.55945
vn 0.81529 -0.14939 0.55945
vn 0.81529 -0.14939 0.55945
vn 0.81529 -0.14939 0.55945
vn -0.98077 0.15662 0.11646
vn -0.98077 0.15662 0.11646
vn -0.98077 0.15662 0.11646
vn -0.98077 0.15662 0.11646
vn -0.32658 -0.15654 -0.93212
vn -0.32658 -0.15654 -0.93212
vn -0.32658 -0.15654 -0.93212
vn 0.25355 0.59988 0.75886
vn 0.25355 0.59988 0.75886
vn 0.25355 0.59988 0.75886
vn -0.72988 0.63455 0.25422
vn -0.72988 0.63455 0.25422
vn -0.72988 0.63455 0.25422
vn -0.72988 0.63455 0.25422
vn -0.77669 0.6055 -0.17357
vn -0.77669 0.6055 -0.17357
vn 0.35641 0.67551 0.64549
vn 0.35641 0.67551 0.64549
vn -0.46846 0.24083 0.85002
vn -0.46846 0.24083 0.85002
vn 0.87393 0.01924 0.48566
vn 0.87393 0.01924 0.48566
vn 0.87393 0.01924 0.48566
vn -0.957 0.27175 0.10148
vn -0.30649 -0.09619 -0.947
vn -0.30649 -0.09619 -0.947
vn -0.49619 0.20078 0.84468
vn -0.49619 0.20078 0.84468
vn -0.49619 0.20078 0.84468
vn 0.86918 -0.03433 0.4933
vn 0.86918 -0.03433 0.4933
vn 0.86918 -0.03433 0.4933
vn -0.99255 0.00755 0.12161
vn -0.99255 0.00755 0.12161
vn -0.99255 0.00755 0.12161
vn -0.99255 0.00755 0.12161
vn -0.28681 -0.0547 -0.95643
vn -0.28681 -0.0547 -0.95643
vn -0.28681 -0.0547 -0.95643
vn -0.53236 0.06607 0.84393
vn -0.53236 0.06607 0.84393
vn 0.85695 -0.04126 0.51375
vn 0.85695 -0.04126 0.51375
vn 0.85695 -0.04126 0.51375
vn -0.98628 0.11523 0.1182
vn -0.98628 0.11523 0.1182
vn -0.98628 0.11523 0.1182
vn -0.29708 -0.11905 -0.9474
vn -0.29708 -0.11905 -0.9474
vn 0.89576 -0.22278 0.38469
vn 0.89576 -0.22278 0.38469
vn 0.89576 -0.22278 0.38469
vn 0.89576 -0.22278 0.38469
vn -0.27279 -0.24382 -0.93066
vn -0.27279 -0.24382 -0.93066
vn 0.35884 -0.79814 -0.48395
vn 0.35884 -0.79814 -0.48395
vn 0.35884 -0.79814 -0.48395
vn 0.35884 -0.79814 -0.48395
vn -0.50072 0.2687 0.82285
vn -0.50072 0.2687 0.82285
vn -0.98729 -0.15849 0.01206
vn -0.98729 -0.15849 0.01206
vn -0.98729 -0.15849 0.01206
vn -0.59281 -0.5514 -0.58696
vn -0.59281 -0.5514 -0.58696
vn -0.59281 -0.5514 -0.58696
vn 0.49323 0.33273 0.80375
vn 0.49323 0.33273 0.80375
vn 0.49323 0.33273 0.80375
vn 0.49323 0.33273 0.80375
vn 0.97306 -0.21597 -0.08074
vn 0.97306 -0.21597 -0.08074
vn 0.97306 -0.21597 -0.08074
vn 0.97306 -0.21597 -0.08074
vn 0.27158 -0.56024 -0.78254
vn 0.27158 -0.56024 -0.78254
vn -0.96772 0.24295 0.06702
vn -0.96772 0.24295 0.06702
vn -0.22407 0.45673 0.86092
vn -0.22407 0.45673 0.86092
vn -0.22407 0.45673 0.86092
vn -0.88177 0.115 0.45744
vn -0.88177 0.115 0.45744
vn -0.88177 0.115 0.45744
vn -0.84692 0.14933 0.51032
vn -0.84692 0.14933 0.51032
vn -0.66145 0.27086 0.69937
vn -0.66145 0.27086 0.69937
vn -0.66145 0.27086 0.69937
vn -0.95327 0.30118 -0.02403
vn -0.95327 0.30118 -0.02403
vn -0.95327 0.30118 -0.02403
vn -0.91307 0.38464 0.13545
vn -0.76525 0.36172 0.5325
vn -0.76525 0.36172 0.5325
vn -0.76525 0.36172 0.5325
vn -0.97228 0.17891 0.15056
vn -0.97228 0.17891 0.15056
vn -0.97228 0.17891 0.15056
vn -0.97228 0.17891 0.15056
vn -0.82924 0.51024 -0.22806
vn -0.82924 0.51024 -0.22806
vn -0.93248 0.35695 -0.05539
vn -0.93248 0.35695 -0.05539
vn -0.86851 0.46762 0.16439
vn -0.86851 0.46762 0.16439
vn -0.86851 0.46762 0.16439
vn -0.72842 0.54018 -0.42144
vn -0.72842 0.54018 -0.42144
vn -0.74174 0.49853 -0.44865
vn -0.74174 0.49853 -0.44865
vn -0.74174 0.49853 -0.44865
vn -0.38464 -0.88083 0.27604
vn -0.38464 -0.88083 0.27604
vn -0.38464 -0.88083 0.27604
vn 0.38735 -0.39688 -0.83213
vn 0.38735 -0.39688 -0.83213
vn 0.38735 -0.39688 -0.83213
vn 0.38735 -0.39688 -0.83213
vn 0.50686 -0.23069 -0.83059
vn 0.50686 -0.23069 -0.83059
vn 0.50686 -0.23069 -0.83059
vn 0.55947 -0.30123 -0.77218
vn 0.55947 -0.30123 -0.77218
vn 0.55947 -0.30123 -0.77218
vn 0.58232 -0.26049 -0.77009
vn 0.58232 -0.26049 -0.77009
vn 0.42522 -0.29474 -0.85575
vn 0.42522 -0.29474 -0.85575
vn 0.42522 -0.29474 -0.85575
vn 0.35162 -0.31438 -0.88178
vn 0.35162 -0.31438 -0.88178
vn 0.35162 -0.31438 -0.88178
vn 0.29637 -0.47805 -0.82682
vn 0.29637 -0.47805 -0.82682
vn 0.31768 -0.39277 -0.86303
vn 0.31768 -0.39277 -0.86303
vn 0.25828 -0.8821 0.39395
vn 0.25828 -0.8821 0.39395
vn -0.95701 0.17042 0.23473
vn -0.95701 0.17042 0.23473
vn -0.95701 0.17042 0.23473
vn -0.53895 0.16484 0.82605
vn -0.53895 0.16484 0.82605
vn 0.27322 -0.82556 -0.49375
vn 0.27322 -0.82556 -0.49375
vn 0.27322 -0.82556 -0.49375
vn -0.58183 0.17075 0.79518
vn -0.58183 0.17075 0.79518
vn -0.58183 0.17075 0.79518
vn -0.92177 0.15363 0.35601
vn -0.92177 0.15363 0.35601
vn -0.92177 0.15363 0.35601
vn -0.99619 0.08705 0.00446
vn -0.99619 0.08705 0.00446
vn -0.99619 0.08705 0.00446
vn -0.29145 0.10571 0.95073
vn -0.29145 0.10571 0.95073
vn -0.29145 0.10571 0.95073
vn 0.3205 -0.9463 -0.04245
vn 0.3205 -0.9463 -0.04245
vn -0.46436 -0.86478 -0.1911
vn -0.46436 -0.86478 -0.1911
vn -0.46436 -0.86478 -0.1911
vn -0.79714 0.46974 -0.37936
vn -0.79714 0.46974 -0.37936
vn -0.82789 0.54072 -0.14905
vn -0.82789 0.54072 -0.14905
vn -0.82789 0.54072 -0.14905
vn -0.80668 0.57577 0.13322
vn -0.80668 0.57577 0.13322
vn -0.80668 0.57577 0.13322
vn -0.80668 0.57577 0.13322
vn -0.15419 0.03796 -0.98731
vn -0.15419 0.03796 -0.98731
vn -0.15419 0.03796 -0.98731
vn -0.15419 0.03796 -0.98731
vn -0.13286 -0.0327 -0.9906
vn -0.13286 -0.0327 -0.9906
vn -0.1513 -0.09219 -0.98418
vn -0.1513 -0.09219 -0.98418
vn -0.1513 -0.09219 -0.98418
vn -0.58496 -0.81028 0.0356
vn -0.58496 -0.81028 0.0356
vn 0.58643 -0.00181 0.81
vn 0.58643 -0.00181 0.81
vn 0.58643 -0.00181 0.81
vn 0.75224 -0.65462 -0.07485
vn 0.75224 -0.65462 -0.07485
vn 0.75224 -0.65462 -0.07485
vn 0.59565 -0.76109 -0.25678
vn 0.59565 -0.76109 -0.25678
vn 0.24222 -0.94277 -0.22914
vn 0.24222 -0.94277 -0.22914
vn 0.24222 -0.94277 -0.22914
vn -0.99086 0.11401 0.07211
vn -0.99086 0.11401 0.07211
vn -0.99086 0.11401 0.07211
vn -0.34496 0.32785 0.8795
vn -0.34496 0.32785 0.8795
vn -0.34496 0.32785 0.8795
vn 0.64193 -0.04709 0.76531
vn 0.64193 -0.04709 0.76531
vn 0.64193 -0.04709 0.76531
vn 0.92493 -0.38013 -0.00213
vn 0.92493 -0.38013 -0.00213
vn 0.92493 -0.38013 -0.00213
vn 0.92493 -0.38013 -0.00213
vn 0.98379 -0.14067 -0.11123
vn 0.98379 -0.14067 -0.11123
vn 0.94784 -0.25433 -0.19215
vn 0.94784 -0.25433 -0.19215
vn 0.94784 -0.25433 -0.19215
vn 0.94784 -0.25433 -0.19215
vn 0.969 -0.10161 -0.22521
vn 0.969 -0.10161 -0.22521
vn 0.969 -0.10161 -0.22521
vn 0.969 -0.10161 -0.22521
vn 0.91347 -0.35988 -0.18989
vn 0.91347 -0.35988 -0.18989
vn 0.91347 -0.35988 -0.18989
vn 0.93484 -0.24057 -0.26116
vn 0.93484 -0.24057 -0.26116
vn 0.93484 -0.24057 -0.26116
vn 0.8744 -0.41978 -0.24332
vn 0.8744 -0.41978 -0.24332
vn 0.84513 -0.46281 -0.26752
vn 0.84513 -0.46281 -0.26752
vn 0.84513 -0.46281 -0.26752
vn 0.84513 -0.46281 -0.26752
vn -0.30754 -0.87007 -0.38522
vn -0.30754 -0.87007 -0.38522
vn -0.30754 -0.87007 -0.38522
vn 0.54312 -0.82574 -0.15222
vn 0.54312 -0.82574 -0.15222
vn 0.54312 -0.82574 -0.15222
vn -0.39071 -0.20711 -0.89691
vn -0.39071 -0.20711 -0.89691
vn -0.39071 -0.20711 -0.89691
vn -0.39071 -0.20711 -0.89691
vn 0.77013 -0.58007 -0.26534
vn 0.77013 -0.58007 -0.26534
vn 0.77013 -0.58007 -0.26534
vn 0.77013 -0.58007 -0.26534
vn 0.34505 -0.60625 -0.71652
vn 0.34505 -0.60625 -0.71652
vn -0.5566 0.27731 0.78313
vn -0.5566 0.27731 0.78313
vn -0.5566 0.27731 0.78313
vn -0.5566 0.27731 0.78313
vn 0.53549 -0.02829 0.84407
vn 0.53549 -0.02829 0.84407
vn 0.53549 -0.02829 0.84407
vn -0.96422 0.2643 -0.02045
vn -0.96422 0.2643 -0.02045
vn -0.96422 0.2643 -0.02045
vn -0.28244 -0.2063 -0.93684
vn -0.28244 -0.2063 -0.93684
vn -0.28244 -0.2063 -0.93684
vn -0.57142 0.32125 0.75517
vn -0.57142 0.32125 0.75517
vn 0.58572 -0.06903 0.80757
vn 0.58572 -0.06903 0.80757
vn 0.58572 -0.06903 0.80757
vn -0.97024 0.24104 0.02329
vn -0.97024 0.24104 0.02329
vn -0.97024 0.24104 0.02329
vn -0.97024 0.24104 0.02329
vn -0.22237 -0.16018 -0.96171
vn -0.22237 -0.16018 -0.96171
vn -0.22237 -0.16018 -0.96171
vn -0.64613 0.05375 0.76133
vn -0.64613 0.05375 0.76133
vn -0.64613 0.05375 0.76133
vn 0.63223 -0.05413 0.77289
vn 0.63223 -0.05413 0.77289
vn -0.99821 0.04611 0.0381
vn -0.99821 0.04611 0.0381
vn -0.17501 -0.02902 -0.98414
vn -0.17501 -0.02902 -0.98414
vn -0.17501 -0.02902 -0.98414
vn -0.65919 0.01183 0.75188
vn -0.65919 0.01183 0.75188
vn -0.65919 0.01183 0.75188
vn 0.68054 -0.02539 0.73227
vn 0.68054 -0.02539 0.73227
vn -0.99709 -0.07604 0.00542
vn -0.99709 -0.07604 0.00542
vn -0.99709 -0.07604 0.00542
vn -0.99709 -0.07604 0.00542
vn -0.13328 -0.14299 -0.98071
vn -0.13328 -0.14299 -0.98071
vn -0.63922 0.20313 0.74171
vn -0.63922 0.20313 0.74171
vn 0.69722 -0.27171 0.66336
vn 0.69722 -0.27171 0.66336
vn -0.96311 0.25296 -0.09185
vn -0.96311 0.25296 -0.09185
vn -0.09647 -0.05786 -0.99365
vn -0.09647 -0.05786 -0.99365
vn -0.09647 -0.05786 -0.99365
vn -0.66821 0.15523 0.7276
vn -0.66821 0.15523 0.7276
vn -0.66821 0.15523 0.7276
vn 0.74576 -0.04401 0.66476
vn 0.74576 -0.04401 0.66476
vn -0.99569 -0.01222 -0.09191
vn -0.99569 -0.01222 -0.09191
vn -0.99569 -0.01222 -0.09191
vn -0.07635 -0.01569 -0.99696
vn -0.07635 -0.01569 -0.99696
vn -0.07635 -0.01569 -0.99696
vn -0.71358 -0.07053 0.69702
vn -0.71358 -0.07053 0.69702
vn -0.71358 -0.07053 0.69702
vn 0.76652 -0.03197 0.64143
vn 0.76652 -0.03197 0.64143
vn -0.99847 -0.01629 -0.05279
vn -0.99847 -0.01629 -0.05279
vn -0.99847 -0.01629 -0.05279
vn -0.0912 -0.07707 -0.99285
vn -0.0912 -0.07707 -0.99285
vn -0.0912 -0.07707 -0.99285
vn -0.0912 -0.07707 -0.99285
vn 0.77481 -0.26051 0.57602
vn 0.77481 -0.26051 0.57602
vn 0.77481 -0.26051 0.57602
vn -0.06749 -0.16868 -0.98336
vn -0.06749 -0.16868 -0.98336
vn -0.06749 -0.16868 -0.98336
vn -0.06749 -0.16868 -0.98336
vn 0.59617 -0.28885 -0.7491
vn 0.59617 -0.28885 -0.7491
vn 0.59617 -0.28885 -0.7491
vn 0.59617 -0.28885 -0.7491
vn 0.67441 -0.19167 -0.71305
vn 0.67441 -0.19167 -0.71305
vn 0.67441 -0.19167 -0.71305
vn 0.71698 -0.25764 -0.64774
vn 0.71698 -0.25764 -0.64774
vn 0.72056 -0.2408 -0.65024
vn 0.72056 -0.2408 -0.65024
vn 0.71805 -0.14849 -0.67996
vn 0.71805 -0.14849 -0.67996
vn 0.71805 -0.14849 -0.67996
vn 0.71805 -0.14849 -0.67996
vn 0.73523 -0.09523 -0.6711
vn 0.73523 -0.09523 -0.6711
vn 0.73523 -0.09523 -0.6711
vn 0.52005 -0.38762 -0.76112
vn 0.52005 -0.38762 -0.76112
vn 0.52005 -0.38762 -0.76112
vn 0.57334 -0.24376 -0.78222
vn 0.57334 -0.24376 -0.78222
vn 0.57334 -0.24376 -0.78222
vn 0.13444 -0.90415 0.40552
vn 0.13444 -0.90415 0.40552
vn 0.13444 -0.90415 0.40552
vn -0.98747 0.15502 0.02963
vn -0.98747 0.15502 0.02963
vn -0.98747 0.15502 0.02963
vn -0.98747 0.15502 0.02963
vn -0.70537 0.11886 0.6988
vn -0.70537 0.11886 0.6988
vn -0.70537 0.11886 0.6988
vn -0.70537 0.11886 0.6988
vn 0.76588 -0.59039 -0.25469
vn 0.76588 -0.59039 -0.25469
vn 0.76588 -0.59039 -0.25469
vn 0.76588 -0.59039 -0.25469
vn -0.78149 0.1237 0.61153
vn -0.78149 0.1237 0.61153
vn -0.78149 0.1237 0.61153
vn -0.98232 0.1198 0.14383
vn -0.98232 0.1198 0.14383
vn -0.98232 0.1198 0.14383
vn -0.96196 0.05317 -0.26797
vn -0.96196 0.05317 -0.26797
vn -0.96196 0.05317 -0.26797
vn -0.51543 0.04811 0.85558
vn -0.51543 0.04811 0.85558
vn -0.99287 0.10607 -0.05431
vn -0.99287 0.10607 -0.05431
vn -0.99287 0.10607 -0.05431
vn -0.61551 0.14111 0.77539
vn -0.61551 0.14111 0.77539
vn -0.61551 0.14111 0.77539
vn 0.4144 -0.14857 0.89789
vn 0.4144 -0.14857 0.89789
vn 0.4144 -0.14857 0.89789
vn 0.93391 -0.31435 0.17026
vn 0.93391 -0.31435 0.17026
vn 0.93391 -0.31435 0.17026
vn 0.93391 -0.31435 0.17026
vn 0.98614 -0.13667 0.09405
vn 0.98614 -0.13667 0.09405
vn 0.98614 -0.13667 0.09405
vn 0.98614 -0.13667 0.09405
vn 0.97281 -0.23158 0.00224
vn 0.97281 -0.23158 0.00224
vn 0.97281 -0.23158 0.00224
vn 0.9563 -0.29239 0.00156
vn 0.9563 -0.29239 0.00156
vn 0.98797 -0.08406 -0.12977
vn 0.98797 -0.08406 -0.12977
vn 0.98797 -0.08406 -0.12977
vn 0.97584 -0.09706 -0.19574
vn 0.97584 -0.09706 -0.19574
vn 0.97584 -0.09706 -0.19574
vn 0.97584 -0.09706 -0.19574
vn 0.84735 -0.51927 -0.11115
vn 0.84735 -0.51927 -0.11115
vn 0.97551 -0.21083 -0.06277
vn 0.97551 -0.21083 -0.06277
vn 0.97551 -0.21083 -0.06277
vn -0.21099 -0.90815 -0.3616
vn -0.21099 -0.90815 -0.3616
vn -0.21099 -0.90815 -0.3616
vn -0.21099 -0.90815 -0.3616
vn 0.72761 -0.60078 -0.33113
vn 0.72761 -0.60078 -0.33113
vn 0.72761 -0.60078 -0.33113
vn -0.22164 -0.11923 -0.96781
vn -0.22164 -0.11923 -0.96781
vn -0.22164 -0.11923 -0.96781
vn 0.84941 -0.52337 0.06774
vn 0.84941 -0.52337 0.06774
vn 0.55584 -0.55104 -0.62241
vn 0.55584 -0.55104 -0.62241
vn -0.8427 0.10163 0.52871
vn -0.8427 0.10163 0.52871
vn -0.8427 0.10163 0.52871
vn -0.8427 0.10163 0.52871
vn 0.4435 -0.06768 0.89371
vn -0.98394 0.15104 -0.09511
vn -0.98394 0.15104 -0.09511
vn -0.98394 0.15104 -0.09511
vn -0.25798 -0.17477 -0.95021
vn -0.25798 -0.17477 -0.95021
vn -0.80476 0.20154 0.55834
vn -0.80476 0.20154 0.55834
vn -0.80476 0.20154 0.55834
vn -0.80476 0.20154 0.55834
vn 0.47917 -0.07413 0.87459
vn 0.47917 -0.07413 0.87459
vn 0.47917 -0.07413 0.87459
vn -0.97378 0.21806 -0.06475
vn -0.97378 0.21806 -0.06475
vn -0.07278 -0.05557 -0.9958
vn -0.07278 -0.05557 -0.9958
vn -0.74471 0.20611 0.63476
vn -0.74471 0.20611 0.63476
vn 0.49723 -0.10453 0.8613
vn 0.49723 -0.10453 0.8613
vn 0.49723 -0.10453 0.8613
vn -0.96848 0.2141 -0.12734
vn -0.96848 0.2141 -0.12734
vn -0.96848 0.2141 -0.12734
vn -0.96848 0.2141 -0.12734
vn -0.0244 -0.1218 -0.99226
vn -0.0244 -0.1218 -0.99226
vn -0.0244 -0.1218 -0.99226
vn -0.0244 -0.1218 -0.99226
vn -0.76985 0.03321 0.63736
vn -0.76985 0.03321 0.63736
vn -0.76985 0.03321 0.63736
vn 0.57133 -0.13551 0.80946
vn 0.57133 -0.13551 0.80946
vn 0.57133 -0.13551 0.80946
vn -0.99297 0.02169 -0.11636
vn -0.99297 0.02169 -0.11636
vn 0.03726 -0.01759 -0.99915
vn 0.03726 -0.01759 -0.99915
vn -0.77535 -0.04049 0.63023
vn -0.77535 -0.04049 0.63023
vn 0.64968 -0.0146 0.76007
vn 0.64968 -0.0146 0.76007
vn -0.99251 0 -0.12213
vn 0.01656 0.00589 -0.99985
vn 0.01656 0.00589 -0.99985
vn -0.75582 -0.13276 0.64118
vn -0.75582 -0.13276 0.64118
vn -0.75582 -0.13276 0.64118
vn -0.75582 -0.13276 0.64118
vn 0.65759 0.07172 0.74995
vn 0.65759 0.07172 0.74995
vn -0.95215 -0.27174 -0.13987
vn -0.95215 -0.27174 -0.13987
vn 0.03457 -0.0727 -0.99675
vn 0.03457 -0.0727 -0.99675
vn -0.72835 -0.23459 0.64379
vn -0.72835 -0.23459 0.64379
vn -0.72835 -0.23459 0.64379
vn 0.66823 0.06572 0.74104
vn 0.66823 0.06572 0.74104
vn 0.66823 0.06572 0.74104
vn -0.97958 -0.13083 -0.15268
vn -0.97958 -0.13083 -0.15268
vn 0.01076 -0.00934 -0.9999
vn 0.01076 -0.00934 -0.9999
vn 0.01076 -0.00934 -0.9999
vn 0.74596 -0.12649 0.65386
vn 0.74596 -0.12649 0.65386
vn 0.0484 -0.11885 -0.99173
vn 0.0484 -0.11885 -0.99173
vn 0.0484 -0.11885 -0.99173
vn 0.0484 -0.11885 -0.99173
vn 0.69584 -0.16523 -0.69893
vn 0.69584 -0.16523 -0.69893
vn 0.74128 0.05174 -0.6692
vn 0.74128 0.05174 -0.6692
vn 0.80336 -0.0477 -0.59358
vn 0.80336 -0.0477 -0.59358
vn 0.80336 -0.0477 -0.59358
vn 0.80336 -0.0477 -0.59358
vn 0.80169 -0.00273 -0.59774
vn 0.80169 -0.00273 -0.59774
vn 0.80169 -0.00273 -0.59774
vn 0.72273 -0.09523 -0.68454
vn 0.72273 -0.09523 -0.68454
vn 0.72273 -0.09523 -0.68454
vn 0.72273 -0.09523 -0.68454
vn 0.63737 -0.27108 -0.7213
vn 0.63737 -0.27108 -0.7213
vn 0.63737 -0.27108 -0.7213
vn 0.67527 -0.24336 -0.69627
vn 0.67527 -0.24336 -0.69627
vn 0.67527 -0.24336 -0.69627
vn 0.73611 -0.16712 -0.6559
vn 0.73611 -0.16712 -0.6559
vn 0.73611 -0.16712 -0.6559
vn 0.42262 -0.82557 0.37393
vn 0.42262 -0.82557 0.37393
vn -0.99453 -0.09749 -0.03756
vn -0.99453 -0.09749 -0.03756
vn -0.7534 -0.11175 0.64799
vn -0.7534 -0.11175 0.64799
vn 0.65103 -0.63371 -0.41781
vn 0.65103 -0.63371 -0.41781
vn 0.65103 -0.63371 -0.41781
vn -0.82741 -0.07745 0.55623
vn -0.82741 -0.07745 0.55623
vn -0.82741 -0.07745 0.55623
vn -0.98982 -0.11018 0.0901
vn -0.98982 -0.11018 0.0901
vn -0.98982 -0.11018 0.0901
vn -0.94228 -0.13655 -0.30573
vn -0.94228 -0.13655 -0.30573
vn -0.94228 -0.13655 -0.30573
vn -0.62018 -0.0888 0.77942
vn -0.62018 -0.0888 0.77942
vn -0.62018 -0.0888 0.77942
vn -0.62018 -0.0888 0.77942
vn -0.93802 0.23424 -0.25544
vn -0.93802 0.23424 -0.25544
vn -0.93802 0.23424 -0.25544
vn -0.93802 0.23424 -0.25544
vn -0.7436 0.17848 0.64437
vn -0.7436 0.17848 0.64437
vn 0.30381 -0.32049 0.89721
vn 0.30381 -0.32049 0.89721
vn 0.95841 -0.16641 0.23186
vn 0.95841 -0.16641 0.23186
vn 0.95841 -0.16641 0.23186
vn 0.95841 -0.16641 0.23186
vn 0.98138 0.10628 0.15997
vn 0.98138 0.10628 0.15997
vn 0.99875 0.00236 0.04995
vn 0.99875 0.00236 0.04995
vn 0.99875 0.00236 0.04995
vn 0.99895 -0.01229 0.04419
vn 0.99895 -0.01229 0.04419
vn 0.97531 -0.22014 0.0177
vn 0.97531 -0.22014 0.0177
vn 0.97531 -0.22014 0.0177
vn 0.9577 -0.28749 0.01286
vn 0.9577 -0.28749 0.01286
vn 0.9577 -0.28749 0.01286
vn 0.95155 -0.30636 0.02651
vn 0.95155 -0.30636 0.02651
vn 0.95155 -0.30636 0.02651
vn 0.95155 -0.30636 0.02651
vn 0.97644 -0.17543 0.12568
vn 0.97644 -0.17543 0.12568
vn 0.97644 -0.17543 0.12568
vn 0.1295 -0.87871 -0.45945
vn 0.1295 -0.87871 -0.45945
vn 0.1295 -0.87871 -0.45945
vn 0.78626 -0.61755 0.02048
vn 0.78626 -0.61755 0.02048
vn -0.11502 0.01431 -0.99326
vn -0.11502 0.01431 -0.99326
vn -0.11502 0.01431 -0.99326
vn 0.74071 -0.66874 0.0643
vn 0.74071 -0.66874 0.0643
vn 0.74071 -0.66874 0.0643
vn 0.45016 -0.7375 -0.50344
vn 0.45016 -0.7375 -0.50344
vn 0.45016 -0.7375 -0.50344
vn -0.90473 0.12526 0.40715
vn -0.90473 0.12526 0.40715
vn -0.90473 0.12526 0.40715
vn 0.41582 -0.29318 0.86089
vn 0.41582 -0.29318 0.86089
vn 0.41582 -0.29318 0.86089
vn -0.93227 0.35098 -0.08766
vn -0.93227 0.35098 -0.08766
vn -0.93227 0.35098 -0.08766
vn -0.03358 0.01632 -0.9993
vn -0.03358 0.01632 -0.9993
vn -0.03358 0.01632 -0.9993
vn -0.03358 0.01632 -0.9993
vn -0.82602 0.07966 0.55798
vn -0.82602 0.07966 0.55798
vn 0.42772 -0.34422 0.8358
vn 0.42772 -0.34422 0.8358
vn 0.42772 -0.34422 0.8358
vn -0.937 0.34701 -0.04025
vn -0.937 0.34701 -0.04025
vn -0.937 0.34701 -0.04025
vn -0.937 0.34701 -0.04025
vn -0.08211 0.23304 -0.96899
vn -0.08211 0.23304 -0.96899
vn -0.08211 0.23304 -0.96899
vn -0.08211 0.23304 -0.96899
vn -0.74643 0.14819 0.64876
vn -0.74643 0.14819 0.64876
vn -0.74643 0.14819 0.64876
vn -0.74643 0.14819 0.64876
vn 0.46193 -0.39771 0.79275
vn 0.46193 -0.39771 0.79275
vn 0.46193 -0.39771 0.79275
vn -0.95435 0.28576 -0.087
vn -0.95435 0.28576 -0.087
vn -0.09159 0.06556 -0.99364
vn -0.09159 0.06556 -0.99364
vn -0.76001 -0.07004 0.64612
vn -0.76001 -0.07004 0.64612
vn -0.76001 -0.07004 0.64612
vn 0.59094 -0.27298 0.75913
vn 0.59094 -0.27298 0.75913
vn 0.59094 -0.27298 0.75913
vn -0.98126 0.17246 -0.08601
vn -0.98126 0.17246 -0.08601
vn -0.98126 0.17246 -0.08601
vn -0.04309 0.15045 -0.98768
vn -0.04309 0.15045 -0.98768
vn -0.69148 -0.09846 0.71566
vn -0.69148 -0.09846 0.71566
vn 0.65914 -0.17017 0.73251
vn 0.65914 -0.17017 0.73251
vn -0.99211 0.11853 -0.04082
vn -0.99211 0.11853 -0.04082
vn -0.99211 0.11853 -0.04082
vn -0.07365 0.11962 -0.99008
vn -0.07365 0.11962 -0.99008
vn -0.07365 0.11962 -0.99008
vn -0.07365 0.11962 -0.99008
vn -0.68099 -0.10011 0.72542
vn -0.68099 -0.10011 0.72542
vn -0.68099 -0.10011 0.72542
vn -0.68099 -0.10011 0.72542
vn 0.69319 -0.24231 0.6788
vn 0.69319 -0.24231 0.6788
vn 0.69319 -0.24231 0.6788
vn -0.97275 -0.17612 -0.15079
vn -0.97275 -0.17612 -0.15079
vn -0.97275 -0.17612 -0.15079
vn -0.97275 -0.17612 -0.15079
vn -0.09803 0.15966 -0.98229
vn -0.09803 0.15966 -0.98229
vn -0.09803 0.15966 -0.98229
vn -0.09803 0.15966 -0.98229
vn -0.69638 -0.27055 0.66473
vn -0.69638 -0.27055 0.66473
vn -0.69638 -0.27055 0.66473
vn 0.70126 -0.1014 0.70565
vn 0.70126 -0.1014 0.70565
vn 0.70126 -0.1014 0.70565
vn -0.99488 0.00979 -0.10064
vn -0.99488 0.00979 -0.10064
vn -0.99488 0.00979 -0.10064
vn -0.11448 0.11795 -0.9864
vn -0.11448 0.11795 -0.9864
vn -0.11448 0.11795 -0.9864
vn -0.11448 0.11795 -0.9864
vn 0.72387 -0.29575 0.62333
vn 0.72387 -0.29575 0.62333
vn 0.72387 -0.29575 0.62333
vn -0.03936 -0.00655 -0.9992
vn -0.03936 -0.00655 -0.9992
vn -0.03936 -0.00655 -0.9992
vn -0.03936 -0.00655 -0.9992
vn 0.60319 -0.12978 -0.78697
vn 0.60319 -0.12978 -0.78697
vn 0.60319 -0.12978 -0.78697
vn 0.70779 0.05832 -0.70401
vn 0.70779 0.05832 -0.70401
vn 0.70779 0.05832 -0.70401
vn 0.70779 0.05832 -0.70401
vn 0.76772 0.00858 -0.64073
vn 0.76772 0.00858 -0.64073
vn 0.76772 0.00858 -0.64073
vn 0.77394 0.00371 -0.63325
vn 0.77394 0.00371 -0.63325
vn 0.77394 0.00371 -0.63325
vn 0.77394 0.00371 -0.63325
vn 0.7278 -0.0718 -0.68203
vn 0.7278 -0.0718 -0.68203
vn 0.7278 -0.0718 -0.68203
vn 0.67261 -0.03259 -0.73928
vn 0.68666 -0.0681 -0.72378
vn 0.63626 -0.23978 -0.73326
vn 0.63626 -0.23978 -0.73326
vn 0.63626 -0.23978 -0.73326
vn 0.32431 -0.92456 0.20002
vn 0.32431 -0.92456 0.20002
vn 0.32431 -0.92456 0.20002
vn -0.99936 0.0065 0.03516
vn -0.99936 0.0065 0.03516
vn -0.99936 0.0065 0.03516
vn -0.71416 -0.13092 0.68763
vn 0.50587 -0.62548 -0.59403
vn 0.50587 -0.62548 -0.59403
vn 0.50587 -0.62548 -0.59403
vn -0.78968 -0.07778 0.60857
vn -0.78968 -0.07778 0.60857
vn -0.78968 -0.07778 0.60857
vn -0.98953 -0.02334 0.1424
vn -0.98953 -0.02334 0.1424
vn -0.98953 -0.02334 0.1424
vn -0.96455 -0.01482 -0.26347
vn -0.96455 -0.01482 -0.26347
vn -0.96455 -0.01482 -0.26347
vn -0.56415 -0.14826 0.81225
vn -0.56415 -0.14826 0.81225
vn -0.88827 0.30815 -0.34062
vn -0.88827 0.30815 -0.34062
vn -0.88827 0.30815 -0.34062
vn -0.88827 0.30815 -0.34062
vn -0.97652 0.05746 0.20761
vn -0.97652 0.05746 0.20761
vn -0.97652 0.05746 0.20761
vn 0.1138 -0.59037 0.79907
vn 0.95951 -0.27544 0.05896
vn 0.95951 -0.27544 0.05896
vn 0.95951 -0.27544 0.05896
vn 0.95951 -0.27544 0.05896
vn 0.99727 0.00014 0.07381
vn 0.99727 0.00014 0.07381
vn 0.98522 -0.15408 -0.07485
vn 0.98522 -0.15408 -0.07485
vn 0.98522 -0.15408 -0.07485
vn 0.99243 -0.10508 -0.06359
vn 0.99243 -0.10508 -0.06359
vn 0.99243 -0.10508 -0.06359
vn 0.96902 -0.2463 -0.01815
vn 0.96902 -0.2463 -0.01815
vn 0.92496 -0.3779 -0.04049
vn 0.92496 -0.3779 -0.04049
vn 0.92496 -0.3779 -0.04049
vn 0.9758 -0.21578 -0.03532
vn 0.9758 -0.21578 -0.03532
vn 0.85759 -0.49688 0.13286
vn 0.85759 -0.49688 0.13286
vn 0.85759 -0.49688 0.13286
vn -0.02193 -0.77156 -0.63578
vn -0.02193 -0.77156 -0.63578
vn 0.70916 -0.69007 -0.14455
vn 0.70916 -0.69007 -0.14455
vn 0.70916 -0.69007 -0.14455
vn 0.70916 -0.69007 -0.14455
vn 0.011 0.19627 -0.98049
vn 0.011 0.19627 -0.98049
vn 0.011 0.19627 -0.98049
vn 0.60561 -0.74146 0.28892
vn 0.60561 -0.74146 0.28892
vn 0.60561 -0.74146 0.28892
vn 0.3875 -0.40236 -0.82943
vn 0.3875 -0.40236 -0.82943
vn 0.10724 -0.99347 0.03887
vn 0.10724 -0.99347 0.03887
vn 0.10724 -0.99347 0.03887
vn 0.10724 -0.99347 0.03887
vn 0.60195 -0.76103 -0.24184
vn 0.60195 -0.76103 -0.24184
vn 0.60195 -0.76103 -0.24184
vn 0.60195 -0.76103 -0.24184
vn 0.74519 -0.65932 -0.09994
vn 0.74519 -0.65932 -0.09994
vn 0.74519 -0.65932 -0.09994
vn 0.42313 -0.35272 -0.8346
vn 0.42313 -0.35272 -0.8346
vn 0.42313 -0.35272 -0.8346
vn 0.14864 -0.98666 0.06633
vn 0.14864 -0.98666 0.06633
vn 0.14864 -0.98666 0.06633
vn 0.70034 -0.66222 -0.26644
vn 0.70034 -0.66222 -0.26644
vn 0.70034 -0.66222 -0.26644
vn 0.42979 -0.41322 -0.80283
vn 0.42979 -0.41322 -0.80283
vn 0.42979 -0.41322 -0.80283
vn 0.47439 -0.87879 -0.0517
vn 0.47439 -0.87879 -0.0517
vn -0.00656 -0.92794 -0.37266
vn -0.00656 -0.92794 -0.37266
vn 0.63557 -0.6955 -0.33515
vn 0.63557 -0.6955 -0.33515
vn 0.63557 -0.6955 -0.33515
vn 0.97067 0.1216 0.20742
vn 0.97067 0.1216 0.20742
vn 0.04195 -0.85892 -0.51039
vn 0.04195 -0.85892 -0.51039
vn 0.04195 -0.85892 -0.51039
vn -0.30275 0.24547 -0.92092
vn -0.30275 0.24547 -0.92092
vn 0.30933 -0.56144 -0.76752
vn 0.30933 -0.56144 -0.76752
vn 0.30933 -0.56144 -0.76752
vn -0.85493 0.46836 -0.22301
vn -0.85493 0.46836 -0.22301
vn -0.79092 0.54345 0.28127
vn -0.79092 0.54345 0.28127
vn -0.49742 0.4298 0.75356
vn -0.49742 0.4298 0.75356
vn -0.49742 0.4298 0.75356
vn 0.32074 -0.01599 0.94703
vn 0.32074 -0.01599 0.94703
vn 0.76052 -0.59156 0.26769
vn 0.62036 -0.70937 -0.33457
vn 0.62036 -0.70937 -0.33457
vn 0.62036 -0.70937 -0.33457
vn 0.6915 -0.67317 -0.26205
vn 0.6915 -0.67317 -0.26205
vn 0.67711 -0.69316 -0.24706
vn 0.67711 -0.69316 -0.24706
vn 0.67711 -0.69316 -0.24706
vn 0.75247 -0.65272 0.08805
vn 0.75247 -0.65272 0.08805
vn 0.75247 -0.65272 0.08805
vn -0.73587 0.57953 0.3502
vn -0.73587 0.57953 0.3502
vn -0.42003 0.41059 0.80931
vn -0.42003 0.41059 0.80931
vn -0.42003 0.41059 0.80931
vn -0.2879 0.39012 0.8746
vn -0.2879 0.39012 0.8746
vn -0.2879 0.39012 0.8746
vn 0.36781 0.24647 0.89664
vn 0.36781 0.24647 0.89664
vn 0.36781 0.24647 0.89664
vn 0.44305 0.65938 0.60739
vn 0.44305 0.65938 0.60739
vn 0.44305 0.65938 0.60739
vn 0.44305 0.65938 0.60739
vn 0.93091 -0.13624 -0.33888
vn 0.93091 -0.13624 -0.33888
vn 0.93091 -0.13624 -0.33888
vn -0.5281 0.56316 0.63558
vn -0.5281 0.56316 0.63558
vn -0.5281 0.56316 0.63558
vn -0.97036 -0.11962 -0.20997
vn -0.97036 -0.11962 -0.20997
vn -0.97036 -0.11962 -0.20997
vn 0.4239 0.46156 0.77927
vn 0.4239 0.46156 0.77927
vn 0.4239 0.46156 0.77927
vn 0.9086 -0.07743 -0.41042
vn 0.9086 -0.07743 -0.41042
vn 0.9086 -0.07743 -0.41042
vn 0.9086 -0.07743 -0.41042
vn -0.40136 0.37012 0.83781
vn -0.40136 0.37012 0.83781
vn -0.40136 0.37012 0.83781
vn -0.95767 -0.27832 -0.07355
vn -0.95767 -0.27832 -0.07355
vn -0.95767 -0.27832 -0.07355
vn 0.36821 0.47996 0.79628
vn 0.36821 0.47996 0.79628
vn 0.36821 0.47996 0.79628
vn 0.36821 0.47996 0.79628
vn 0.9383 -0.15248 -0.31039
vn 0.9383 -0.15248 -0.31039
vn -0.34075 0.55186 0.76114
vn -0.34075 0.55186 0.76114
vn -0.34075 0.55186 0.76114
vn -0.93028 -0.36148 -0.06263
vn -0.93028 -0.36148 -0.06263
vn -0.93028 -0.36148 -0.06263
vn 0.93211 -0.29424 -0.21118
vn 0.93211 -0.29424 -0.21118
vn 0.93211 -0.29424 -0.21118
vn 0.93211 -0.29424 -0.21118
vn -0.90298 -0.42965 -0.0046
vn -0.90298 -0.42965 -0.0046
vn -0.90298 -0.42965 -0.0046
vn -0.90298 -0.42965 -0.0046
vn -0.48758 -0.85275 -0.18732
vn -0.52767 -0.687 -0.49959
vn -0.52767 -0.687 -0.49959
vn -0.52767 -0.687 -0.49959
vn -0.43812 -0.52695 -0.72827
vn -0.43812 -0.52695 -0.72827
vn -0.43812 -0.52695 -0.72827
vn -0.49142 -0.52185 -0.69727
vn -0.49142 -0.52185 -0.69727
vn 0.51402 -0.54101 0.66566
vn 0.51402 -0.54101 0.66566
vn -0.26133 0.7207 0.64211
vn -0.26133 0.7207 0.64211
vn 0.36535 0.71647 0.5943
vn 0.36535 0.71647 0.5943
vn 0.36535 0.71647 0.5943
vn -0.03927 -0.94579 0.3224
vn -0.03927 -0.94579 0.3224
vn -0.03927 -0.94579 0.3224
vn 0.27612 0.73556 0.61864
vn 0.27612 0.73556 0.61864
vn -0.15474 0.68349 0.71337
vn -0.15474 0.68349 0.71337
vn -0.15474 0.68349 0.71337
vn -0.6891 0.31241 0.65386
vn -0.6891 0.31241 0.65386
vn -0.6891 0.31241 0.65386
vn 0.7156 0.5103 0.47697
vn 0.7156 0.5103 0.47697
vn 0.7156 0.5103 0.47697
vn 0.7156 0.5103 0.47697
vn 0.47259 -0.82078 -0.3209
vn 0.47259 -0.82078 -0.3209
vn 0.47259 -0.82078 -0.3209
vn 0.45467 -0.58353 -0.67288
vn 0.37402 -0.46818 -0.80057
vn 0.37402 -0.46818 -0.80057
vn 0.37402 -0.46818 -0.80057
vn 0.37523 -0.60168 -0.70511
vn 0.37523 -0.60168 -0.70511
vn 0.37523 -0.60168 -0.70511
vn 0.37523 -0.60168 -0.70511
vn -0.26739 -0.71102 0.65035
vn -0.26739 -0.71102 0.65035
vn 0.33594 -0.91234 0.23405
vn 0.33594 -0.91234 0.23405
vn 0.33594 -0.91234 0.23405
vn -0.39126 0.66196 0.63932
vn -0.39126 0.66196 0.63932
vn -0.46374 0.60582 0.64648
vn -0.46374 0.60582 0.64648
vn -0.46374 0.60582 0.64648
vn -0.46374 0.60582 0.64648
vn 0.87296 -0.44088 0.20872
vn 0.87296 -0.44088 0.20872
vn 0.87296 -0.44088 0.20872
vn 0.53005 -0.11168 -0.84058
vn 0.53005 -0.11168 -0.84058
vn 0.53005 -0.11168 -0.84058
vn -0.7474 0.64127 -0.1737
vn -0.7474 0.64127 -0.1737
vn -0.63321 0.75694 0.16151
vn -0.63321 0.75694 0.16151
vn -0.43153 0.77272 0.46549
vn -0.43153 0.77272 0.46549
vn -0.71259 0.49438 -0.49779
vn -0.71259 0.49438 -0.49779
vn -0.71259 0.49438 -0.49779
vn -0.71259 0.49438 -0.49779
vn -0.18535 -0.98175 0.04259
vn -0.18535 -0.98175 0.04259
vn 0.43088 -0.10845 0.89587
vn 0.43088 -0.10845 0.89587
vn 0.34918 -0.59163 -0.72667
vn 0.34918 -0.59163 -0.72667
vn 0.34918 -0.59163 -0.72667
vn -0.17912 0.26721 0.94684
vn -0.17912 0.26721 0.94684
vn -0.17912 0.26721 0.94684
vn 0.52348 -0.39671 -0.75405
vn 0.52348 -0.39671 -0.75405
vn 0.76117 -0.28469 -0.58273
vn 0.76117 -0.28469 -0.58273
vn 0.76117 -0.28469 -0.58273
vn 0.0002 0.49073 0.87131
vn 0.0002 0.49073 0.87131
vn 0.0002 0.49073 0.87131
vn 0.15857 -0.05038 -0.98606
vn 0.15857 -0.05038 -0.98606
vn 0.15857 -0.05038 -0.98606
vn 0.5464 -0.80349 -0.23632
vn 0.5464 -0.80349 -0.23632
vn 0.5464 -0.80349 -0.23632
vn 0.60407 -0.73322 -0.31222
vn 0.60407 -0.73322 -0.31222
vn 0.34134 -0.44552 -0.82765
vn 0.34134 -0.44552 -0.82765
vn 0.69455 -0.6903 -0.20269
vn 0.69455 -0.6903 -0.20269
vn 0.85402 -0.41952 -0.30767
vn 0.85402 -0.41952 -0.30767
vn 0.986 0.05241 0.15831
vn 0.986 0.05241 0.15831
vn 0.98863 0.15036 0.00211
vn 0.98863 0.15036 0.00211
vn 0.98863 0.15036 0.00211
vn 0.39288 0.49849 0.77276
vn 0.39288 0.49849 0.77276
vn 0.39288 0.49849 0.77276
vn 0.45048 0.58543 0.67404
vn 0.45048 0.58543 0.67404
vn 0.45048 0.58543 0.67404
vn 0.45048 0.58543 0.67404
vn -0.39136 0.38348 -0.83653
vn -0.39136 0.38348 -0.83653
vn -0.39136 0.38348 -0.83653
vn 0.77425 -0.44378 -0.45121
vn 0.77425 -0.44378 -0.45121
vn 0.70972 -0.58251 -0.39621
vn 0.70972 -0.58251 -0.39621
vn 0.70972 -0.58251 -0.39621
vn 0.70972 -0.58251 -0.39621
vn 0.68311 -0.40077 -0.61052
vn 0.68311 -0.40077 -0.61052
vn 0.68311 -0.40077 -0.61052
vn 0.62894 -0.65369 -0.42086
vn 0.62894 -0.65369 -0.42086
vn 0.32262 -0.57974 -0.74821
vn 0.32262 -0.57974 -0.74821
vn -0.45969 0.03893 -0.88722
vn -0.45969 0.03893 -0.88722
vn -0.45969 0.03893 -0.88722
usemtl mat0
f 1//1 2//1 3//1
f 3//1 4//2 1//1
f 5//3 3//3 2//3
f 2//3 6//3 5//3
f 7//4 5//5 6//4
f 6//4 8//4 7//4
f 9//6 10//6 5//6
f 5//6 7//6 9//6
f 11//7 12//8 13//9
f 13//9 14//8 11//7
f 15//10 16//11 17//12
f 17//12 18//12 15//10
f 19//13 20//14 16//15
f 16//15 15//16 19//13
f 21//17 22//18 20//18
f 20//18 19//17 21//17
f 23//19 24//19 13//20
f 13//20 25//21 23//19
f 26//22 27//23 28//24
f 28//24 29//25 26//22
f 29//26 28//27 30//27
f 30//27 31//28 29//26
f 25//29 13//30 12//29
f 12//29 32//30 25//29
f 33//31 23//32 25//32
f 25//32 34//33 33//31
f 34//34 25//35 32//34
f 32//34 35//35 34//34
f 35//36 32//37 36//38
f 36//38 37//38 35//36
f 38//39 23//40 33//40
f 33//40 39//40 38//39
f 40//41 38//41 39//42
f 39//42 41//43 40//41
f 42//44 27//45 26//45
f 26//45 43//44 42//44
f 44//46 45//47 43//48
f 43//48 46//47 44//46
f 47//49 28//50 27//50
f 27//50 48//50 47//49
f 49//51 30//52 28//52
f 28//52 47//53 49//51
f 48//54 27//55 42//56
f 42//56 50//55 48//54
f 50//57 42//58 51//57
f 51//57 52//59 50//57
f 53//60 47//61 48//62
f 48//62 54//60 53//60
f 55//63 49//64 47//65
f 47//65 53//63 55//63
f 54//66 48//67 50//68
f 50//68 56//67 54//66
f 56//69 50//69 52//70
f 52//70 57//69 56//69
f 58//71 53//72 54//73
f 54//73 59//74 58//71
f 60//75 55//76 53//77
f 53//77 58//78 60//75
f 59//79 54//80 56//81
f 56//81 61//82 59//79
f 61//83 56//84 57//85
f 57//85 62//83 61//83
f 63//86 64//87 65//87
f 65//87 18//88 63//86
f 66//89 67//90 68//91
f 68//91 69//92 66//89
f 70//93 71//94 67//94
f 67//94 66//94 70//93
f 72//95 24//95 23//96
f 23//96 38//95 72//95
f 73//97 58//97 59//98
f 59//98 74//98 73//97
f 75//99 60//100 58//99
f 58//99 73//101 75//99
f 74//102 59//102 61//102
f 61//102 76//102 74//102
f 76//103 61//104 62//103
f 62//103 77//103 76//103
f 78//105 73//106 74//105
f 74//105 79//107 78//105
f 80//108 75//109 73//108
f 73//108 78//110 80//108
f 79//111 74//112 76//113
f 76//113 81//114 79//111
f 81//115 76//116 77//117
f 77//117 82//115 81//115
f 83//118 78//119 79//118
f 79//118 84//118 83//118
f 85//120 80//121 78//122
f 78//122 83//121 85//120
f 84//123 79//124 81//125
f 81//125 86//123 84//123
f 86//126 81//126 82//127
f 82//127 87//126 86//126
f 88//128 85//129 83//130
f 83//130 89//131 88//128
f 90//132 86//133 87//132
f 87//132 91//132 90//132
f 36//134 40//135 41//136
f 41//136 37//137 36//134
f 92//138 33//138 34//138
f 34//138 93//139 92//138
f 93//140 34//141 35//142
f 35//142 94//142 93//140
f 94//143 35//144 37//145
f 37//145 95//143 94//143
f 96//146 39//147 33//148
f 33//148 92//149 96//146
f 97//150 41//151 39//152
f 39//152 96//153 97//150
f 95//154 37//155 41//154
f 41//154 97//154 95//154
f 46//156 98//156 4//156
f 4//156 99//157 46//156
f 100//158 101//159 4//160
f 4//160 98//160 100//158
f 99//161 4//162 3//162
f 3//162 102//163 99//161
f 103//164 46//165 99//164
f 99//164 102//165 103//164
f 102//166 3//166 104//167
f 104//167 103//168 102//166
f 105//169 104//170 3//171
f 3//171 106//171 105//169
f 3//172 5//172 107//172
f 107//172 106//172 3//172
f 107//173 5//174 108//173
f 108//173 109//175 107//173
f 109//176 105//177 106//178
f 106//178 107//179 109//176
f 110//180 108//181 5//180
f 5//180 10//180 110//180
f 111//182 110//183 10//183
f 10//183 9//182 111//182
f 112//184 111//185 9//186
f 9//186 7//184 112//184
f 113//187 7//187 8//188
f 8//188 114//188 113//187
f 115//189 112//189 7//190
f 7//190 113//191 115//189
f 46//192 103//193 116//192
f 116//192 44//194 46//192
f 117//195 118//196 91//197
f 91//197 87//198 117//195
f 82//199 119//200 117//200
f 117//200 87//201 82//199
f 77//202 120//202 119//203
f 119//203 82//204 77//202
f 62//205 121//206 120//205
f 120//205 77//206 62//205
f 57//207 122//208 121//209
f 121//209 62//207 57//207
f 52//210 123//211 122//210
f 122//210 57//212 52//210
f 51//213 124//213 123//214
f 123//214 52//213 51//213
f 125//215 124//215 51//216
f 51//216 45//216 125//215
f 126//217 118//218 88//217
f 88//217 89//217 126//217
f 84//219 86//220 127//220
f 127//220 128//221 84//219
f 84//222 128//223 129//223
f 129//223 83//223 84//222
f 126//224 130//225 131//226
f 131//226 90//226 126//224
f 128//227 130//228 132//227
f 132//227 129//229 128//227
f 127//230 131//231 130//232
f 130//232 128//232 127//230
f 90//233 131//234 127//234
f 127//234 86//235 90//233
f 89//236 83//237 129//238
f 129//238 132//238 89//236
f 133//239 134//240 44//239
f 44//239 116//239 133//239
f 135//241 105//241 109//242
f 109//242 136//243 135//241
f 22//244 137//245 114//244
f 114//244 8//244 22//244
f 20//246 22//247 8//248
f 8//248 6//246 20//246
f 16//249 20//250 6//251
f 6//251 2//252 16//249
f 138//253 113//254 114//255
f 114//255 139//256 138//253
f 140//257 115//257 113//258
f 113//258 138//258 140//257
f 139//259 114//260 137//261
f 137//261 141//260 139//259
f 110//262 111//263 142//262
f 142//262 143//263 110//262
f 144//264 101//265 100//266
f 100//266 145//265 144//264
f 146//267 144//268 145//268
f 145//268 134//269 146//267
f 147//270 146//270 134//271
f 134//271 133//271 147//270
f 136//272 148//273 133//273
f 133//273 135//274 136//272
f 98//275 46//276 43//277
f 43//277 26//277 98//275
f 100//278 98//279 26//280
f 26//280 29//278 100//278
f 31//281 145//282 100//283
f 100//283 29//281 31//281
f 117//284 85//285 88//286
f 88//286 118//287 117//284
f 119//288 80//289 85//289
f 85//289 117//289 119//288
f 120//290 75//291 80//292
f 80//292 119//293 120//290
f 121//294 60//295 75//296
f 75//296 120//297 121//294
f 122//298 55//299 60//300
f 60//300 121//300 122//298
f 123//301 49//302 55//303
f 55//303 122//303 123//301
f 124//304 30//305 49//305
f 49//305 123//304 124//304
f 31//306 30//307 124//308
f 124//308 125//309 31//306
f 126//310 90//310 91//311
f 91//311 118//312 126//310
f 126//313 89//314 132//315
f 132//315 130//314 126//313
f 51//316 42//317 43//318
f 43//318 45//319 51//316
f 125//320 134//321 145//322
f 145//322 31//323 125//320
f 45//324 44//325 134//325
f 134//325 125//325 45//324
f 149//326 150//327 151//328
f 151//328 152//329 149//326
f 152//330 151//331 153//332
f 153//332 154//332 152//330
f 155//333 150//334 149//333
f 149//333 156//335 155//333
f 135//336 157//336 156//337
f 156//337 105//338 135//336
f 158//339 151//340 150//340
f 150//340 159//340 158//339
f 160//341 153//342 151//343
f 151//343 158//343 160//341
f 159//344 150//345 155//346
f 155//346 161//347 159//344
f 161//348 155//349 162//350
f 162//350 163//349 161//348
f 164//351 158//352 159//351
f 159//351 165//353 164//351
f 166//354 160//354 158//355
f 158//355 164//354 166//354
f 165//356 159//357 161//357
f 161//357 167//357 165//356
f 167//358 161//359 163//360
f 163//360 168//359 167//358
f 169//361 164//362 165//363
f 165//363 170//361 169//361
f 171//364 166//364 164//364
f 164//364 169//365 171//364
f 170//366 165//367 167//368
f 167//368 172//369 170//366
f 172//370 167//370 168//370
f 168//370 173//371 172//370
f 174//372 169//373 170//372
f 170//372 175//372 174//372
f 176//374 171//375 169//374
f 169//374 174//374 176//374
f 175//376 170//377 172//377
f 172//377 177//377 175//376
f 177//378 172//378 173//379
f 173//379 178//380 177//378
f 179//381 174//381 175//382
f 175//382 180//383 179//381
f 181//384 176//385 174//384
f 174//384 179//385 181//384
f 180//386 175//387 177//388
f 177//388 182//388 180//386
f 182//389 177//390 178//389
f 178//389 183//391 182//389
f 184//392 179//393 180//394
f 180//394 185//394 184//392
f 186//395 181//396 179//396
f 179//396 184//396 186//395
f 185//397 180//397 182//398
f 182//398 187//399 185//397
f 187//400 182//401 183//402
f 183//402 188//403 187//400
f 189//404 186//404 184//405
f 184//405 190//406 189//404
f 191//407 187//408 188//409
f 188//409 192//410 191//407
f 193//411 194//412 192//413
f 192//413 188//414 193//411
f 183//415 195//416 193//415
f 193//415 188//417 183//415
f 178//418 196//419 195//419
f 195//419 183//419 178//418
f 173//420 197//421 196//420
f 196//420 178//420 173//420
f 168//422 198//423 197//424
f 197//424 173//425 168//422
f 163//426 199//427 198//426
f 198//426 168//428 163//426
f 162//429 200//430 199//431
f 199//431 163//429 162//429
f 201//432 200//433 162//432
f 162//432 157//434 201//432
f 202//435 194//436 189//435
f 189//435 190//437 202//435
f 185//438 187//439 203//440
f 203//440 204//441 185//438
f 185//442 204//443 205//444
f 205//444 184//445 185//442
f 202//446 206//447 207//448
f 207//448 191//449 202//446
f 204//450 206//451 208//452
f 208//452 205//451 204//450
f 203//453 207//454 206//455
f 206//455 204//454 203//453
f 191//456 207//457 203//458
f 203//458 187//456 191//456
f 190//459 184//460 205//460
f 205//460 208//460 190//459
f 104//461 105//462 156//463
f 156//463 149//462 104//461
f 103//464 104//465 149//466
f 149//466 152//465 103//464
f 154//467 116//468 103//467
f 103//467 152//469 154//467
f 193//470 186//471 189//472
f 189//472 194//473 193//470
f 195//474 181//475 186//476
f 186//476 193//477 195//474
f 196//478 176//479 181//480
f 181//480 195//478 196//478
f 197//481 171//482 176//482
f 176//482 196//481 197//481
f 198//483 166//484 171//483
f 171//483 197//485 198//483
f 199//486 160//487 166//488
f 166//488 198//489 199//486
f 200//490 153//490 160//491
f 160//491 199//490 200//490
f 154//492 153//492 200//493
f 200//493 201//494 154//492
f 202//495 191//496 192//497
f 192//497 194//498 202//495
f 202//499 190//500 208//501
f 208//501 206//499 202//499
f 162//502 155//503 156//504
f 156//504 157//503 162//502
f 201//505 133//506 116//505
f 116//505 154//505 201//505
f 157//507 135//508 133//508
f 133//508 201//507 157//507
f 209//509 210//510 211//511
f 211//511 212//512 209//509
f 212//513 211//513 213//513
f 213//513 214//513 212//513
f 215//514 210//515 209//516
f 209//516 216//514 215//514
f 143//517 217//517 216//517
f 216//517 110//518 143//517
f 218//519 211//520 210//521
f 210//521 219//522 218//519
f 220//523 213//524 211//525
f 211//525 218//523 220//523
f 219//526 210//527 215//527
f 215//527 221//527 219//526
f 221//528 215//529 222//529
f 222//529 223//529 221//528
f 224//530 218//530 219//531
f 219//531 225//530 224//530
f 226//532 220//532 218//533
f 218//533 224//534 226//532
f 225//535 219//536 221//537
f 221//537 227//538 225//535
f 227//539 221//540 223//541
f 223//541 228//542 227//539
f 229//543 224//544 225//545
f 225//545 230//544 229//543
f 231//546 226//547 224//547
f 224//547 229//548 231//546
f 230//549 225//550 227//550
f 227//550 232//550 230//549
f 232//551 227//552 228//551
f 228//551 233//551 232//551
f 234//553 229//553 230//554
f 230//554 235//553 234//553
f 236//555 231//556 229//556
f 229//556 234//555 236//555
f 235//557 230//557 232//557
f 232//557 237//557 235//557
f 237//558 232//559 233//558
f 233//558 238//558 237//558
f 239//560 234//561 235//562
f 235//562 240//563 239//560
f 241//564 236//564 234//565
f 234//565 239//565 241//564
f 240//566 235//567 237//567
f 237//567 242//566 240//566
f 242//568 237//569 238//569
f 238//569 243//569 242//568
f 244//570 239//571 240//572
f 240//572 245//572 244//570
f 246//573 241//574 239//575
f 239//575 244//573 246//573
f 245//576 240//576 242//576
f 242//576 247//577 245//576
f 247//578 242//579 243//579
f 243//579 248//580 247//578
f 249//581 246//581 244//582
f 244//582 250//581 249//581
f 251//583 247//584 248//585
f 248//585 252//586 251//583
f 253//587 254//588 252//587
f 252//587 248//587 253//587
f 243//589 255//589 253//589
f 253//589 248//590 243//589
f 238//591 256//592 255//593
f 255//593 243//594 238//591
f 233//595 257//596 256//597
f 256//597 238//595 233//595
f 228//598 258//599 257//600
f 257//600 233//601 228//598
f 223//602 259//603 258//604
f 258//604 228//602 223//602
f 222//605 260//606 259//605
f 259//605 223//607 222//605
f 261//608 260//608 222//609
f 222//609 217//610 261//608
f 262//611 254//611 249//612
f 249//612 250//611 262//611
f 245//613 247//613 263//613
f 263//613 264//614 245//613
f 245//615 264//615 265//615
f 265//615 244//616 245//615
f 262//617 266//618 267//619
f 267//619 251//617 262//617
f 264//620 266//620 268//621
f 268//621 265//622 264//620
f 263//623 267//624 266//625
f 266//625 264//624 263//623
f 251//626 267//627 263//627
f 263//627 247//628 251//626
f 250//629 244//630 265//631
f 265//631 268//632 250//629
f 108//633 110//634 216//635
f 216//635 209//636 108//633
f 109//637 108//637 209//637
f 209//637 212//638 109//637
f 214//639 136//640 109//639
f 109//639 212//639 214//639
f 253//641 246//642 249//643
f 249//643 254//644 253//641
f 255//645 241//646 246//645
f 246//645 253//645 255//645
f 256//647 236//648 241//649
f 241//649 255//649 256//647
f 257//650 231//650 236//650
f 236//650 256//651 257//650
f 258//652 226//652 231//653
f 231//653 257//654 258//652
f 259//655 220//655 226//656
f 226//656 258//657 259//655
f 260//658 213//659 220//660
f 220//660 259//661 260//658
f 214//662 213//662 260//663
f 260//663 261//664 214//662
f 262//665 251//666 252//667
f 252//667 254//665 262//665
f 262//668 250//668 268//669
f 268//669 266//668 262//668
f 222//670 215//671 216//671
f 216//671 217//672 222//670
f 261//673 148//674 136//674
f 136//674 214//675 261//673
f 217//676 143//677 148//678
f 148//678 261//677 217//676
f 269//679 270//680 271//681
f 271//681 272//679 269//679
f 272//682 271//683 273//683
f 273//683 274//684 272//682
f 275//685 270//686 269//687
f 269//687 276//687 275//685
f 140//688 277//689 276//690
f 276//690 115//691 140//688
f 278//692 271//692 270//692
f 270//692 279//693 278//692
f 280//694 273//695 271//696
f 271//696 278//694 280//694
f 279//697 270//698 275//699
f 275//699 281//700 279//697
f 281//701 275//702 282//703
f 282//703 283//704 281//701
f 284//705 278//706 279//707
f 279//707 285//708 284//705
f 286//709 280//710 278//710
f 278//710 284//711 286//709
f 285//712 279//713 281//712
f 281//712 287//713 285//712
f 287//714 281//715 283//715
f 283//715 288//715 287//714
f 289//716 284//717 285//718
f 285//718 290//718 289//716
f 291//719 286//720 284//721
f 284//721 289//721 291//719
f 290//722 285//722 287//723
f 287//723 292//724 290//722
f 292//725 287//726 288//726
f 288//726 293//726 292//725
f 294//727 289//727 290//728
f 290//728 295//727 294//727
f 296//729 291//729 289//729
f 289//729 294//730 296//729
f 295//731 290//732 292//733
f 292//733 297//733 295//731
f 297//734 292//735 293//736
f 293//736 298//737 297//734
f 299//738 294//739 295//740
f 295//740 300//741 299//738
f 301//742 296//742 294//743
f 294//743 299//744 301//742
f 300//745 295//746 297//747
f 297//747 302//748 300//745
f 302//749 297//750 298//751
f 298//751 303//752 302//749
f 304//753 299//754 300//754
f 300//754 305//755 304//753
f 306//756 301//757 299//758
f 299//758 304//757 306//756
f 305//759 300//760 302//761
f 302//761 307//759 305//759
f 307//762 302//763 303//764
f 303//764 308//765 307//762
f 309//766 306//767 304//768
f 304//768 310//768 309//766
f 311//769 307//770 308//771
f 308//771 312//772 311//769
f 313//773 314//774 312//773
f 312//773 308//775 313//773
f 303//776 315//777 313//778
f 313//778 308//779 303//776
f 298//780 316//780 315//781
f 315//781 303//782 298//780
f 293//783 317//784 316//785
f 316//785 298//786 293//783
f 288//787 318//788 317//787
f 317//787 293//789 288//787
f 283//790 319//790 318//790
f 318//790 288//790 283//790
f 282//791 320//791 319//791
f 319//791 283//791 282//791
f 321//792 320//793 282//793
f 282//793 277//794 321//792
f 322//795 314//796 309//797
f 309//797 310//795 322//795
f 305//798 307//799 323//799
f 323//799 324//800 305//798
f 305//801 324//801 325//801
f 325//801 304//801 305//801
f 322//802 326//803 327//804
f 327//804 311//804 322//802
f 324//805 326//805 328//806
f 328//806 325//807 324//805
f 323//808 327//809 326//810
f 326//810 324//809 323//808
f 311//811 327//812 323//813
f 323//813 307//813 311//811
f 310//814 304//815 325//814
f 325//814 328//814 310//814
f 112//816 115//817 276//818
f 276//818 269//819 112//816
f 111//820 112//821 269//822
f 269//822 272//822 111//820
f 274//823 142//823 111//823
f 111//823 272//823 274//823
f 313//824 306//825 309//826
f 309//826 314//827 313//824
f 315//828 301//829 306//829
f 306//829 313//828 315//828
f 316//830 296//831 301//832
f 301//832 315//832 316//830
f 317//833 291//834 296//834
f 296//834 316//835 317//833
f 318//836 286//837 291//836
f 291//836 317//836 318//836
f 319//838 280//839 286//840
f 286//840 318//838 319//838
f 320//841 273//842 280//841
f 280//841 319//842 320//841
f 274//843 273//844 320//844
f 320//844 321//845 274//843
f 322//846 311//846 312//846
f 312//846 314//847 322//846
f 322//848 310//849 328//850
f 328//850 326//851 322//848
f 282//852 275//853 276//854
f 276//854 277//854 282//852
f 321//855 329//856 142//855
f 142//855 274//857 321//855
f 277//858 140//859 329//859
f 329//859 321//859 277//858
f 148//860 143//861 142//862
f 142//862 329//863 148//860
f 147//864 133//865 148//866
f 148//866 330//867 147//864
f 330//868 148//869 329//869
f 329//869 331//870 330//868
f 140//871 138//872 331//873
f 331//873 329//872 140//871
f 12//874 11//875 332//876
f 332//876 333//875 12//874
f 334//877 330//878 331//879
f 331//879 335//878 334//877
f 335//880 331//881 138//880
f 138//880 139//882 335//880
f 40//883 36//884 333//883
f 333//883 336//883 40//883
f 332//885 337//885 336//886
f 336//886 333//886 332//885
f 338//887 339//888 340//888
f 340//888 341//889 338//887
f 342//890 72//891 343//891
f 343//891 344//890 342//890
f 336//892 337//893 338//892
f 338//892 345//894 336//892
f 346//895 347//895 71//896
f 71//896 70//895 346//895
f 346//897 348//898 349//899
f 349//899 350//898 346//897
f 351//900 352//901 70//900
f 70//900 66//901 351//900
f 353//902 351//902 66//903
f 66//903 69//902 353//902
f 354//904 353//905 69//906
f 69//906 355//906 354//904
f 356//907 354//907 355//908
f 355//908 357//907 356//907
f 358//909 356//909 357//909
f 357//909 359//909 358//909
f 349//910 358//911 359//911
f 359//911 350//912 349//910
f 332//913 146//914 147//913
f 147//913 337//913 332//913
f 334//915 337//916 147//916
f 147//916 330//917 334//915
f 146//918 332//919 11//920
f 11//920 144//920 146//918
f 16//921 2//922 1//922
f 1//922 17//921 16//921
f 1//923 14//924 360//925
f 360//925 17//924 1//923
f 4//926 101//927 14//926
f 14//926 1//928 4//926
f 65//929 64//930 357//931
f 357//931 355//930 65//929
f 361//932 96//933 92//934
f 92//934 362//935 361//932
f 363//936 97//936 96//937
f 96//937 361//938 363//936
f 362//939 92//940 93//940
f 93//940 364//941 362//939
f 364//942 93//942 94//943
f 94//943 365//944 364//942
f 366//945 361//946 362//947
f 362//947 367//947 366//945
f 368//948 363//949 361//950
f 361//950 366//951 368//948
f 367//952 362//952 364//953
f 364//953 369//954 367//952
f 369//955 364//956 365//955
f 365//955 370//957 369//955
f 371//958 366//959 367//960
f 367//960 372//961 371//958
f 373//962 368//962 366//962
f 366//962 371//963 373//962
f 372//964 367//965 369//966
f 369//966 374//966 372//964
f 374//967 369//968 370//969
f 370//969 375//968 374//967
f 376//970 373//971 371//972
f 371//972 377//973 376//970
f 378//974 374//975 375//976
f 375//976 379//977 378//974
f 380//978 381//978 379//978
f 379//978 375//978 380//978
f 370//979 382//980 380//981
f 380//981 375//981 370//979
f 365//982 383//983 382//982
f 382//982 370//984 365//982
f 94//985 95//986 383//985
f 383//985 365//985 94//985
f 384//987 381//988 376//988
f 376//988 377//988 384//987
f 372//989 374//989 385//990
f 385//990 386//989 372//989
f 372//991 386//992 387//993
f 387//993 371//993 372//991
f 384//994 388//994 389//995
f 389//995 378//996 384//994
f 386//997 388//997 390//998
f 390//998 387//997 386//997
f 385//999 389//1000 388//1001
f 388//1001 386//1000 385//999
f 378//1002 389//1003 385//1004
f 385//1004 374//1003 378//1002
f 377//1005 371//1006 387//1007
f 387//1007 390//1008 377//1005
f 380//1009 373//1010 376//1009
f 376//1009 381//1011 380//1009
f 382//1012 368//1012 373//1012
f 373//1012 380//1012 382//1012
f 383//1013 363//1014 368//1015
f 368//1015 382//1015 383//1013
f 95//1016 97//1017 363//1018
f 363//1018 383//1019 95//1016
f 384//1020 378//1020 379//1021
f 379//1021 381//1020 384//1020
f 384//1022 377//1022 390//1023
f 390//1023 388//1024 384//1022
f 65//1025 355//1026 69//1026
f 69//1026 68//1026 65//1025
f 63//1027 18//1028 17//1029
f 17//1029 360//1030 63//1027
f 391//1031 359//1032 357//1033
f 357//1033 64//1032 391//1031
f 392//1034 347//1034 393//1035
f 393//1035 394//1036 392//1034
f 19//1037 67//1037 71//1037
f 71//1037 21//1038 19//1037
f 15//1039 68//1040 67//1039
f 67//1039 19//1039 15//1039
f 18//1041 65//1041 68//1041
f 68//1041 15//1042 18//1041
f 21//1043 392//1044 137//1045
f 137//1045 22//1046 21//1043
f 36//1047 32//1047 12//1048
f 12//1048 333//1048 36//1047
f 144//1049 11//1050 14//1050
f 14//1050 101//1050 144//1049
f 395//1051 345//1052 338//1053
f 338//1053 341//1053 395//1051
f 360//1054 14//1055 13//1056
f 13//1056 24//1056 360//1054
f 396//1057 397//1057 141//1058
f 141//1058 394//1058 396//1057
f 344//1059 395//1060 341//1060
f 341//1060 391//1061 344//1059
f 398//1062 63//1063 360//1063
f 360//1063 24//1064 398//1062
f 392//1065 394//1066 141//1067
f 141//1067 137//1065 392//1065
f 334//1068 339//1069 338//1070
f 338//1070 337//1069 334//1068
f 335//1071 397//1072 339//1071
f 339//1071 334//1071 335//1071
f 139//1073 141//1074 397//1073
f 397//1073 335//1073 139//1073
f 343//1075 40//1076 336//1076
f 336//1076 345//1076 343//1075
f 344//1077 343//1077 345//1078
f 345//1078 395//1078 344//1077
f 40//1079 343//1080 72//1080
f 72//1080 38//1079 40//1079
f 64//1081 342//1082 344//1083
f 344//1083 391//1083 64//1081
f 72//1084 342//1085 398//1084
f 398//1084 24//1086 72//1084
f 64//1087 63//1088 398//1089
f 398//1089 342//1090 64//1087
f 71//1091 347//1092 392//1093
f 392//1093 21//1091 71//1091
f 341//1094 340//1094 393//1095
f 393//1095 391//1094 341//1094
f 393//1096 350//1097 359//1098
f 359//1098 391//1099 393//1096
f 340//1100 396//1101 394//1100
f 394//1100 393//1102 340//1100
f 339//1103 397//1103 396//1103
f 396//1103 340//1104 339//1103
f 347//1105 346//1105 350//1106
f 350//1106 393//1105 347//1105
f 352//1107 348//1108 346//1109
f 346//1109 70//1108 352//1107
# Vertices: 398, normals: 1109, texture coordinates: 0, faces: 786

