###############################################################################
# Name    : S-Yakuza
# Author  : juanpulidos
# License : CC Attribution
# Link    : https://skfb.ly/FuoH
# Converted from .fbx to .obj via ImageToStl.com
###############################################################################

o obj1
v -25.604254 161.136108 18.783051
v -18.651024 162.256210 16.418667
v -23.232281 153.093002 2.077904
v -25.521999 149.864960 9.291242
v -30.841131 140.855560 -8.860804
v -28.568121 141.683212 3.448894
v -33.244419 129.111938 -9.854450
v -31.219568 134.931076 6.828721
v -35.284054 118.035828 -11.475083
v -37.279766 118.526978 3.620829
v -36.791958 107.129959 -15.785281
v -40.399117 107.188675 -0.242686
v -34.824162 102.548470 15.565283
v -29.515535 116.811226 20.611101
v -34.824162 102.548470 15.565283
v -17.608278 101.283295 24.062475
v -13.964540 117.293312 26.048155
v -29.515535 116.811226 20.611101
v 4.138119 117.678032 21.205687
v 3.170576 103.117615 20.215246
v 4.351781 143.283432 24.217812
v -14.678576 138.277969 27.428747
v -12.470283 151.850464 31.287052
v 8.336825 150.241364 23.698925
v -26.187881 132.969299 21.327791
v -26.187881 132.969299 21.327791
v -27.303537 64.835831 9.792368
v -11.247295 68.512985 -6.401841
v -14.433915 72.458420 6.970937
v 1.131632 87.213226 17.416609
v -17.141500 84.585922 18.759312
v 0.137361 78.320549 4.636967
v 1.978867 92.347649 20.291365
v -19.100380 91.792282 22.387951
v -35.826149 98.112648 -19.015247
v -40.767979 99.118492 -6.284226
v -40.399117 107.188675 -0.242686
v -36.791958 107.129959 -15.785281
v -36.470070 98.611237 9.730708
v -34.824162 102.548470 15.565283
v -37.546963 89.485260 -21.948185
v -37.749790 76.718124 -20.335184
v -44.812935 79.960121 -6.178909
v -44.305817 91.705887 -7.094708
v -41.649002 81.106361 7.810402
v -41.190094 92.386169 7.607507
v -31.967009 91.583817 17.589653
v -29.775368 80.720612 16.342123
v -27.796324 48.730556 -10.519392
v -18.145515 75.330612 -22.937660
v -11.247295 68.512985 -6.401841
v -19.354233 47.960278 0.026756
v -1.192905 168.026688 24.713821
v -12.204277 165.489487 29.029716
v 5.408222 168.379242 24.235540
v -38.745811 109.568176 25.004850
v -47.711082 100.838196 21.516685
v -51.039539 103.225204 16.521635
v -43.605988 113.510147 20.120848
v -34.653656 150.210907 22.669279
v -31.042957 141.539352 16.349844
v -40.202736 121.191681 23.344334
v -46.510635 125.469994 28.174385
v -50.897629 116.733002 26.921421
v -45.534679 112.521355 37.609955
v -53.939854 100.179253 32.607468
v -49.088379 99.654793 28.590225
v -39.745216 109.214081 32.997440
v -30.084347 135.932297 13.858068
v -35.555790 117.989037 27.061874
v -28.567648 133.231186 25.389248
v -27.585674 145.601028 34.130020
v -40.978096 123.096252 39.054752
v -35.647720 118.789200 34.646648
v -32.396832 152.054184 31.959785
v -46.483711 126.280380 35.716728
v -51.007263 116.124290 34.797470
v -56.979103 102.572319 30.001236
v -57.027508 103.950417 22.844690
v -28.567648 133.231186 25.389248
v -35.647720 118.789200 34.646648
v -39.745216 109.214081 32.997440
v -49.088379 99.654793 28.590225
v -41.391228 52.025135 -1.411806
v -33.254269 53.927486 7.275349
v -34.144650 40.829277 11.287468
v -41.804665 39.047180 1.204924
v -37.655155 50.405418 -9.204247
v -38.213203 37.353882 -6.869445
v -28.893736 36.767876 -8.618530
v -30.320356 21.065903 -4.752456
v -38.238506 21.245224 -3.154321
v -20.699888 37.667583 2.645514
v -19.354233 47.960278 0.026756
v -20.699888 37.667583 2.645514
v -23.016396 97.722816 20.441950
v -32.327438 97.589508 15.577095
v -23.036083 98.407829 -30.244074
v -20.399029 89.244156 -29.885180
v -1.955353 90.635269 -34.999840
v -3.904658 99.226410 -38.883629
v -8.435550 166.233948 15.600485
v -8.662907 163.701569 11.040093
v -21.502237 140.425110 -18.371058
v -16.107441 154.687500 -3.132976
v -25.205660 128.754150 -23.135235
v -27.286198 117.371170 -27.328983
v -26.872314 107.194023 -30.175169
v -26.872314 107.194023 -30.175169
v -40.078972 22.026581 5.000633
v -34.325249 22.677176 12.247274
v -26.115925 21.982811 4.877604
v -26.115925 21.982811 4.877604
v -20.588137 162.332428 29.634192
v -4.456845 173.478821 1.396908
v -8.471499 175.507050 3.423426
v -6.460050 175.625549 2.892256
v -4.418156 174.890808 1.486457
v -5.175302 169.918976 -0.447607
v -10.340421 173.433304 4.158834
v -6.021959 177.922287 3.313094
v -9.264104 178.305527 6.307940
v -9.324909 180.722809 6.465679
v -5.631385 179.448212 2.026309
v -7.934152 184.700806 7.123374
v -5.297568 180.735626 1.922680
v -6.381313 176.656677 1.226563
v -4.377930 180.670471 1.634436
v -4.468769 179.569901 1.412782
v -6.384586 175.915665 1.232321
v -5.292140 176.624847 -0.495260
v -5.319257 175.714340 -0.558691
v -5.156361 174.980942 -0.185499
v -3.730992 185.721588 3.121874
v -11.776318 169.467834 7.369396
v -5.281532 167.465179 -0.934890
v -4.649989 163.667313 -0.474122
v -10.970704 165.867737 7.155838
v -11.175008 175.177719 5.747066
v -12.001673 171.747757 11.171586
v -11.376866 176.905029 10.524445
v -9.707224 173.324768 15.025529
v -10.299892 178.105850 13.600780
v -10.851623 179.189728 10.087709
v -10.705646 181.514969 12.275938
v -10.505494 168.434982 15.009151
v -7.177711 170.925690 19.668730
v -7.982816 173.923492 18.405306
v -7.177711 170.925690 19.668730
v -1.121075 170.764435 23.830832
v -2.267060 174.132477 23.950678
v -7.982816 173.923492 18.405306
v 5.400306 173.731049 23.884556
v 5.100412 170.866638 23.374760
v -2.332087 178.743240 23.815531
v -7.503332 178.954834 18.960114
v 5.066907 179.299667 22.901833
v 4.262934 187.361496 20.986181
v -1.920811 186.921143 21.041468
v -3.622672 189.528519 14.062097
v 0.282422 190.747940 12.090516
v -9.053667 185.069000 17.319839
v -6.841175 183.672699 19.972250
v -8.930322 180.266541 17.248688
v -3.041029 161.959900 3.639232
v -6.081881 154.235977 -7.156772
v -8.508351 141.598572 -25.266174
v -10.025437 129.628662 -33.215630
v -9.314691 117.273003 -38.665661
v -6.591335 107.761993 -40.423042
v -6.591335 107.761993 -40.423042
v -0.715215 81.183510 -28.716843
v -0.064701 74.832916 -6.937909
v -0.064701 74.832916 -6.937909
v 2.753377 97.820717 21.033417
v -3.041029 161.959900 3.639232
v -8.662907 163.701569 11.040093
v -1.192905 168.026688 24.713821
v 5.408222 168.379242 24.235540
v -8.435550 166.233948 15.600485
v -17.608278 101.283295 24.062475
v 3.170576 103.117615 20.215246
v -8.435550 166.233948 15.600485
v -9.707224 173.324768 15.025529
v -8.874958 174.679276 18.375629
v -9.491083 179.951477 18.861357
v -10.299892 178.105850 13.600780
v -7.503332 178.954834 18.960114
v -8.930322 180.266541 17.248688
v -7.982816 173.923492 18.405306
v -57.027508 103.950417 22.844690
v -51.039539 103.225204 16.521635
v -56.296776 98.764679 16.988882
v -59.233101 97.355247 22.185076
v -56.602058 92.843704 14.546286
v -59.281315 91.828888 21.759331
v -59.332077 90.605713 27.617014
v -59.501324 95.293121 27.537125
v -56.979103 102.572319 30.001236
v -47.711082 100.838196 21.516685
v -47.357590 98.373207 19.715639
v -49.693810 98.741493 16.215054
v -45.951752 95.721336 17.313911
v -48.164383 95.524193 14.818885
v -44.360435 90.474319 15.590458
v -43.553005 91.375610 17.450890
v -52.319504 96.291451 15.825360
v -50.911411 94.507347 15.754063
v -47.357590 98.373207 19.715639
v -48.440247 96.959229 21.055092
v -47.141769 94.160103 19.289762
v -45.951752 95.721336 17.313911
v -47.357590 98.373207 19.715639
v -47.711082 100.838196 21.516685
v -49.088379 99.654793 28.590225
v -48.440247 96.959229 21.055092
v -56.950871 91.151039 29.258238
v -56.622051 95.126976 30.421236
v -53.939854 100.179253 32.607468
v -53.571430 94.383507 22.712667
v -56.622051 95.126976 30.421236
v -56.950871 91.151039 29.258238
v -54.513287 90.768112 21.387390
v -52.319504 96.291451 15.825360
v -54.109684 93.430077 14.484152
v -52.319504 96.291451 15.825360
v -54.109684 93.430077 14.484152
v -47.375000 90.712845 16.534067
v -43.553005 91.375610 17.450890
v -44.975399 90.958427 19.032061
v -47.375000 90.712845 16.534067
v -50.911411 94.507347 15.754063
v -52.319504 96.291451 15.825360
v -53.939854 100.179253 32.607468
v -44.360435 90.474319 15.590458
v -57.739155 86.221451 20.828054
v -54.091122 88.402275 13.169514
v -57.133839 84.974075 28.438902
v -54.045521 86.831314 29.745070
v -52.331841 85.978027 22.921701
v -54.045521 86.831314 29.745070
v -50.186970 89.151787 13.599720
v -50.186970 89.151787 13.599720
v -50.391048 81.966064 21.007818
v -48.943932 85.274818 12.963222
v -52.347790 83.291252 29.172773
v -50.933365 85.675888 30.389654
v -48.695854 84.096977 21.954597
v -50.933365 85.675888 30.389654
v -46.701664 87.390594 13.772229
v -46.701664 87.390594 13.772229
v -48.695854 84.096977 21.954597
v 4.825895 176.144073 26.639244
v 5.282708 176.860565 27.621073
v 3.000729 180.104050 22.429443
v 2.401971 177.616806 21.159575
v 7.141039 178.073730 27.553082
v 6.425174 176.305557 26.040787
v 4.234755 182.177383 20.973097
v 3.394144 178.645966 19.172533
v 6.425174 176.305557 26.040787
v 29.051371 162.364090 5.059136
v 26.604897 159.144104 -8.069350
v 13.950541 155.932846 -10.883603
v 21.259214 163.587418 5.878897
v 21.916824 150.515472 -13.355886
v 17.506784 142.899963 -20.041258
v 21.484505 138.203476 -12.623969
v 23.160812 131.609665 -23.346155
v 33.290569 121.755257 -13.616313
v 25.571930 120.660378 -26.575361
v 29.870413 109.088951 -26.273430
v 38.416935 109.342300 -11.758745
v 34.382904 119.726303 5.050511
v 37.519238 104.147903 6.994404
v 37.519238 104.147903 6.994404
v 34.382904 119.726303 5.050511
v 22.892550 118.928917 17.316660
v 24.194815 102.506470 17.532576
v 22.686491 140.249969 12.118272
v 21.020845 147.902130 12.438444
v 23.054754 137.297867 3.967145
v 23.054754 137.297867 3.967145
v 27.306242 64.837181 9.785507
v 14.571975 72.501663 6.740009
v 11.201731 68.534142 -6.514749
v 18.791674 84.860229 17.294744
v 22.731703 92.427376 18.997311
v 32.689663 99.045921 -24.037529
v 29.870413 109.088951 -26.273430
v 38.416935 109.342300 -11.758745
v 39.749588 99.996178 -11.040521
v 37.519238 104.147903 6.994404
v 37.346336 99.276077 5.367013
v 36.244038 89.876938 -24.087534
v 43.261417 91.343216 -9.577686
v 44.013306 79.165169 -7.082195
v 37.652630 76.746658 -20.513929
v 41.208073 91.933220 5.280621
v 41.173450 79.765556 6.885003
v 33.179272 91.588242 14.736347
v 29.965090 80.278152 15.380503
v 27.796329 48.730556 -10.519390
v 19.354235 47.960281 0.026755
v 11.201731 68.534142 -6.514749
v 17.692533 75.402779 -23.322824
v 11.997731 165.254257 18.489103
v 21.174156 158.299210 15.675064
v 28.173008 142.539444 -44.422512
v 33.326267 142.807297 -44.347832
v 32.620773 141.652649 -58.170513
v 26.869347 140.530792 -56.550014
v 25.495541 134.208603 -41.879738
v 25.451591 138.753311 -43.652298
v 22.576262 134.503448 -55.857059
v 22.712601 128.341507 -56.382053
v 31.938972 132.613739 -41.732075
v 27.105516 128.030777 -56.775318
v 34.771103 136.982193 -42.699638
v 32.021542 133.131592 -58.442535
v 25.451591 138.753311 -43.652298
v 22.576262 134.503448 -55.857059
v 25.290148 148.427505 -14.121002
v 25.040676 139.643112 5.309377
v 33.254269 53.927490 7.275353
v 41.391228 52.025135 -1.411800
v 34.144653 40.829277 11.287471
v 41.804676 39.047176 1.204931
v 37.655159 50.405418 -9.204244
v 38.213203 37.353882 -6.869438
v 38.238499 21.245224 -3.154314
v 30.320356 21.065903 -4.752451
v 28.893738 36.767876 -8.618525
v 20.699892 37.667583 2.645518
v 19.354235 47.960281 0.026755
v 20.699892 37.667583 2.645518
v 34.210972 98.336807 10.923273
v 26.892464 98.691887 15.272358
v 17.538630 89.591492 -31.739382
v 16.785543 99.143593 -34.171944
v 11.321350 159.187302 9.599852
v 6.760039 164.070435 5.572395
v 6.247758 141.785278 -25.632248
v 3.822843 155.597427 -10.313663
v 8.374315 130.391876 -31.853271
v 11.191215 119.044930 -36.264179
v 15.269946 108.516365 -37.234406
v 15.269946 108.516365 -37.234406
v 40.078976 22.026581 5.000643
v 34.325253 22.677176 12.247280
v 26.115925 21.982817 4.877609
v 26.115925 21.982817 4.877609
v 25.426153 153.911377 8.162650
v 25.040676 139.643112 5.309377
v -2.051239 175.070526 0.789934
v -0.308822 174.869278 -0.348354
v 1.527031 172.518829 -1.274069
v -1.988233 177.919617 1.530921
v -3.231980 179.448212 0.961707
v 2.523366 180.722809 1.195850
v 2.401142 178.305527 1.149272
v -3.549198 180.735626 1.144840
v 2.058922 184.700806 2.658214
v -3.307822 176.441116 -0.194276
v -3.318626 175.533615 -0.232741
v 5.430986 169.312271 0.261306
v 5.418435 165.942596 0.989642
v 3.321304 175.061172 -0.643160
v 6.976480 176.904709 2.457910
v 8.341524 171.760681 2.838604
v 8.508176 178.105011 5.319142
v 9.362175 173.296112 7.010960
v 6.256412 179.189728 2.509166
v 7.769301 181.514969 4.075308
v 10.860470 168.487518 7.370706
v 10.573962 173.883194 10.506712
v 11.026471 170.833633 12.256867
v 11.026471 170.833633 12.256867
v 10.573962 173.883194 10.506712
v 10.670653 174.131775 18.309114
v 9.709960 170.760864 19.192869
v 10.576325 178.954559 10.971502
v 10.702560 178.743225 18.040840
v 8.418526 186.921143 16.418905
v 4.353094 189.528519 10.493732
v 10.399998 185.069000 8.655194
v 10.891665 183.672699 12.077540
v 10.268566 180.266541 8.753757
v 6.760039 164.070435 5.572395
v 11.997731 165.254257 18.489103
v 11.321350 159.187302 9.599852
v 24.194815 102.506470 17.532576
v 11.321350 159.187302 9.599852
v 9.362175 173.296112 7.010960
v 8.508176 178.105011 5.319142
v 11.840171 179.950500 9.450784
v 11.171431 174.631317 9.842240
v 10.268566 180.266541 8.753757
v 10.576325 178.954559 10.971502
v 10.573962 173.883194 10.506712
v 32.021542 133.131592 -58.442535
v 28.273783 134.024338 -64.886047
v 31.013823 139.374146 -64.199646
v 32.620773 141.652649 -58.170513
v 22.997080 136.901794 -68.517471
v 26.286661 144.411636 -68.739639
v 18.848436 132.748566 -66.896881
v 23.581282 130.528168 -64.433777
v 27.105516 128.030777 -56.775318
v 26.869347 140.530792 -56.550014
v 28.843046 144.096344 -60.366482
v 25.834295 142.924011 -58.065468
v 26.187925 147.496002 -61.146885
v 24.366924 146.795837 -58.584751
v 20.029222 151.345047 -60.064960
v 19.646463 150.013123 -58.319481
v 27.736578 143.901382 -63.540710
v 25.548973 145.708435 -63.348724
v 25.834295 142.924011 -58.065468
v 24.366924 146.795837 -58.584751
v 22.187002 145.402512 -59.409283
v 24.279547 141.891312 -58.859119
v 25.834295 142.924011 -58.065468
v 24.279547 141.891312 -58.859119
v 22.576262 134.503448 -55.857059
v 26.869347 140.530792 -56.550014
v 17.748281 132.674026 -64.320709
v 20.957708 130.001083 -61.828362
v 22.712601 128.341507 -56.382053
v 22.958803 138.563477 -63.163857
v 20.247147 140.923553 -65.864853
v 17.748281 132.674026 -64.320709
v 20.957708 130.001083 -61.828362
v 27.736578 143.901382 -63.540710
v 26.134535 145.505310 -66.669037
v 26.134535 145.505310 -66.669037
v 27.736578 143.901382 -63.540710
v 20.452436 148.967407 -62.030663
v 19.646463 150.013123 -58.319481
v 18.753641 148.272324 -59.101402
v 20.452436 148.967407 -62.030663
v 25.548973 145.708435 -63.348724
v 27.736578 143.901382 -63.540710
v 22.712601 128.341507 -56.382053
v 20.029222 151.345047 -60.064960
v 17.275503 141.288483 -70.681366
v 21.816214 149.224884 -69.627197
v 12.344875 135.912323 -67.806328
v 12.364569 136.074615 -63.974556
v 14.265318 143.132721 -65.918488
v 12.364569 136.074615 -63.974556
v 21.320906 150.375488 -66.041687
v 21.320906 150.375488 -66.041687
v 11.399175 147.018326 -67.218536
v 18.084568 152.823120 -67.340240
v 9.126283 138.792267 -64.746956
v 10.175243 137.780487 -61.904793
v 12.202072 146.580643 -64.448288
v 10.175243 137.780487 -61.904793
v 18.898457 152.603409 -64.176758
v 18.898457 152.603409 -64.176758
v 12.202072 146.580643 -64.448288
v 7.939741 176.144073 25.265644
v 5.516065 177.616806 19.787144
v 6.112770 180.104050 21.047407
v 8.395679 176.860565 26.243391
v -36.655743 15.899737 -2.048406
v -40.505779 9.618815 -10.638074
v -45.800720 8.973502 -9.696458
v -40.231895 14.790845 3.684586
v -35.202839 27.482508 -3.913392
v -39.641563 27.477306 1.305592
v -37.521690 15.656048 7.720985
v -36.989952 27.507900 7.600175
v -37.930790 6.151647 9.200013
v -41.104687 6.119538 5.805318
v -37.201092 8.442596 -16.072485
v -42.891632 8.891788 -15.373365
v -35.213322 8.013201 -12.334815
v -26.442848 27.456944 4.925661
v -29.745363 14.372848 4.881122
v -30.706356 13.421069 0.065099
v -27.129910 27.413626 0.984416
v -29.555840 6.052599 5.993288
v -29.796207 5.988251 1.791355
v -35.061405 5.875840 -12.520777
v -32.462837 15.690374 9.093211
v -31.156282 27.560284 7.430645
v -32.462837 15.690374 9.093211
v -31.156282 27.560284 7.430645
v -31.995005 6.100799 10.212595
v -47.416039 6.016267 -8.647362
v -31.995005 6.100799 10.212595
v -37.671162 5.831184 -16.050537
v -43.415161 5.899323 -15.807832
v -39.337341 5.600309 14.371317
v -24.879019 5.600310 8.162443
v -36.701954 5.600312 -19.369081
v -51.160275 5.600311 -13.160208
v -39.337353 2.111900 14.371317
v -51.160275 2.111907 -13.160209
v -36.701954 2.111908 -19.369083
v -24.879019 2.111917 8.162442
v -51.160275 2.111907 -13.160209
v -36.701954 2.111908 -19.369083
v -39.337353 2.111900 14.371317
v -51.160275 2.111907 -13.160209
v -24.879019 2.111917 8.162442
v -39.337353 2.111900 14.371317
v -36.701954 2.111908 -19.369083
v -24.879019 2.111917 8.162442
v -40.829460 -1.061024 10.309062
v -42.228825 -1.061024 7.050429
v -28.196611 -1.061018 1.024545
v -26.797251 -1.061018 4.283175
v -42.228825 -1.061024 7.050429
v -42.228821 2.427380 7.050430
v -28.196611 2.427381 1.024545
v -28.196611 -1.061018 1.024545
v -40.829460 -1.061024 10.309062
v -40.829460 2.427380 10.309062
v -42.228821 2.427380 7.050430
v -42.228825 -1.061024 7.050429
v -26.797251 -1.061018 4.283175
v -26.797251 2.427380 4.283175
v -40.829460 2.427380 10.309062
v -40.829460 -1.061024 10.309062
v -28.196611 -1.061018 1.024545
v -28.196611 2.427381 1.024545
v -26.797251 2.427380 4.283175
v -26.797251 -1.061018 4.283175
v -47.837852 -1.061017 -6.011060
v -49.237213 -1.061017 -9.269691
v -35.205006 -1.061017 -15.295576
v -33.805641 -1.061017 -12.036944
v -49.237213 -1.061017 -9.269691
v -49.237213 2.427381 -9.269690
v -35.205006 2.427376 -15.295576
v -35.205006 -1.061017 -15.295576
v -47.837852 -1.061017 -6.011060
v -47.837860 2.427381 -6.011059
v -49.237213 2.427381 -9.269690
v -49.237213 -1.061017 -9.269691
v -33.805641 -1.061017 -12.036944
v -33.805641 2.427382 -12.036944
v -47.837860 2.427381 -6.011059
v -47.837852 -1.061017 -6.011060
v -35.205006 -1.061017 -15.295576
v -35.205006 2.427376 -15.295576
v -33.805641 2.427382 -12.036944
v -33.805641 -1.061017 -12.036944
v 36.168747 15.899737 -2.048400
v 39.744900 14.790845 3.684592
v 45.313721 8.973514 -9.696450
v 40.018780 9.618821 -10.638066
v 34.715843 27.482513 -3.913386
v 39.154568 27.477306 1.305599
v 36.502956 27.507906 7.600180
v 37.034691 15.656048 7.720992
v 37.443790 6.151658 9.200020
v 40.617687 6.119544 5.805326
v 36.714092 8.442596 -16.072479
v 34.726315 8.013201 -12.334807
v 42.404633 8.891788 -15.373356
v 30.219355 13.421069 0.065104
v 29.258364 14.372848 4.881127
v 25.955851 27.456955 4.925665
v 26.642906 27.413626 0.984419
v 29.068842 6.052599 5.993293
v 29.309214 5.988245 1.791362
v 34.574402 5.875840 -12.520767
v 30.669283 27.560284 7.430650
v 31.975843 15.690374 9.093217
v 31.975843 15.690374 9.093217
v 30.669283 27.560284 7.430650
v 31.508003 6.100782 10.212603
v 46.929043 6.016267 -8.647353
v 31.508003 6.100782 10.212603
v 37.184155 5.831195 -16.050531
v 42.928162 5.899323 -15.807823
v 38.850346 5.600309 14.371324
v 50.673275 5.600311 -13.160197
v 36.214947 5.600312 -19.369076
v 24.392021 5.600310 8.162450
v 38.850342 2.111905 14.371324
v 24.392021 2.111900 8.162449
v 36.214947 2.111908 -19.369076
v 50.673275 2.111907 -13.160197
v 50.673275 2.111907 -13.160197
v 36.214947 2.111908 -19.369076
v 38.850342 2.111905 14.371324
v 50.673275 2.111907 -13.160197
v 24.392021 2.111900 8.162449
v 38.850342 2.111905 14.371324
v 36.214947 2.111908 -19.369076
v 24.392021 2.111900 8.162449
v 40.342464 -1.061024 10.309070
v 26.310249 -1.061024 4.283181
v 27.709612 -1.061018 1.024550
v 41.741817 -1.061018 7.050436
v 41.741817 -1.061018 7.050436
v 27.709612 -1.061018 1.024550
v 27.709616 2.427381 1.024550
v 41.741821 2.427380 7.050437
v 40.342464 -1.061024 10.309070
v 41.741817 -1.061018 7.050436
v 41.741821 2.427380 7.050437
v 40.342464 2.427380 10.309070
v 26.310249 -1.061024 4.283181
v 40.342464 -1.061024 10.309070
v 40.342464 2.427380 10.309070
v 26.310249 2.427380 4.283181
v 27.709612 -1.061018 1.024550
v 26.310249 -1.061024 4.283181
v 26.310249 2.427380 4.283181
v 27.709616 2.427381 1.024550
v 47.350857 -1.061017 -6.011050
v 33.318638 -1.061017 -12.036939
v 34.718002 -1.061017 -15.295568
v 48.750214 -1.061017 -9.269682
v 48.750214 -1.061017 -9.269682
v 34.718002 -1.061017 -15.295568
v 34.718002 2.427382 -15.295568
v 48.750214 2.427381 -9.269681
v 47.350857 -1.061017 -6.011050
v 48.750214 -1.061017 -9.269682
v 48.750214 2.427381 -9.269681
v 47.350857 2.427381 -6.011050
v 33.318638 -1.061017 -12.036939
v 47.350857 -1.061017 -6.011050
v 47.350857 2.427381 -6.011050
v 33.318645 2.427382 -12.036939
v 34.718002 -1.061017 -15.295568
v 33.318638 -1.061017 -12.036939
v 33.318645 2.427382 -12.036939
v 34.718002 2.427382 -15.295568
f 1 2 3
f 3 4 1
f 3 5 6
f 6 4 3
f 5 7 8
f 8 6 5
f 7 9 10
f 10 8 7
f 11 12 10
f 10 9 11
f 10 12 13
f 13 14 10
f 15 16 17
f 17 18 15
f 19 17 16
f 16 20 19
f 21 22 17
f 17 19 21
f 23 22 21
f 21 24 23
f 25 18 17
f 17 22 25
f 26 8 10
f 10 14 26
f 27 28 29
f 30 31 29
f 29 32 30
f 33 34 31
f 31 30 33
f 35 36 37
f 37 38 35
f 37 36 39
f 39 40 37
f 41 42 43
f 43 44 41
f 44 43 45
f 45 46 44
f 47 48 31
f 31 34 47
f 49 50 51
f 51 52 49
f 53 54 24
f 24 55 53
f 56 57 58
f 58 59 56
f 60 1 4
f 4 61 60
f 62 63 60
f 60 61 62
f 64 63 62
f 62 59 64
f 65 66 67
f 67 68 65
f 61 4 6
f 6 69 61
f 62 61 69
f 69 70 62
f 71 72 73
f 73 74 71
f 73 72 75
f 75 76 73
f 77 78 66
f 66 65 77
f 58 79 64
f 64 59 58
f 70 69 80
f 80 81 70
f 82 83 57
f 57 56 82
f 8 26 80
f 80 69 8
f 43 84 85
f 85 45 43
f 86 85 84
f 84 87 86
f 43 42 88
f 88 84 43
f 89 90 91
f 91 92 89
f 48 45 85
f 85 27 48
f 93 94 85
f 85 86 93
f 90 49 52
f 52 95 90
f 34 96 97
f 97 47 34
f 47 97 39
f 39 46 47
f 46 39 36
f 36 44 46
f 44 36 35
f 35 41 44
f 41 35 98
f 98 99 41
f 100 99 98
f 98 101 100
f 2 54 53
f 53 102 2
f 2 102 103
f 104 5 3
f 3 105 104
f 104 106 7
f 7 5 104
f 106 107 9
f 9 7 106
f 9 107 108
f 108 11 9
f 38 109 98
f 98 35 38
f 99 50 42
f 42 41 99
f 49 88 42
f 42 50 49
f 88 49 90
f 90 89 88
f 92 110 87
f 87 89 92
f 87 110 111
f 111 86 87
f 86 111 112
f 112 93 86
f 95 113 91
f 91 90 95
f 89 87 84
f 84 88 89
f 29 31 48
f 48 27 29
f 46 45 48
f 48 47 46
f 65 73 76
f 76 77 65
f 68 74 73
f 73 65 68
f 56 70 81
f 81 82 56
f 59 62 70
f 70 56 59
f 72 23 114
f 114 75 72
f 71 22 23
f 23 72 71
f 1 114 54
f 54 2 1
f 60 75 114
f 114 1 60
f 60 63 76
f 76 75 60
f 64 77 76
f 76 63 64
f 79 78 77
f 77 64 79
f 69 6 8
f 71 25 22
f 115 116 117
f 117 118 115
f 115 119 120
f 117 116 121
f 121 122 123
f 123 124 121
f 124 123 125
f 125 126 124
f 124 127 121
f 124 126 128
f 128 129 124
f 117 121 127
f 127 130 117
f 127 131 132
f 132 130 127
f 130 132 133
f 130 133 118
f 118 117 130
f 126 125 134
f 134 128 126
f 135 120 119
f 119 136 135
f 135 136 137
f 137 138 135
f 139 116 120
f 120 135 139
f 139 135 140
f 140 141 139
f 140 142 143
f 143 141 140
f 122 139 141
f 141 144 122
f 123 122 144
f 123 144 145
f 145 125 123
f 141 143 145
f 145 144 141
f 135 138 146
f 146 140 135
f 140 146 142
f 142 146 147
f 147 148 142
f 149 150 151
f 151 152 149
f 153 151 150
f 150 154 153
f 152 151 155
f 155 156 152
f 157 155 151
f 151 153 157
f 158 159 155
f 155 157 158
f 134 125 160
f 160 161 134
f 162 160 125
f 125 145 162
f 160 162 163
f 163 159 160
f 159 163 156
f 156 155 159
f 162 145 143
f 143 164 162
f 162 164 156
f 156 163 162
f 165 166 105
f 105 103 165
f 166 167 104
f 104 105 166
f 168 169 107
f 107 106 168
f 107 169 170
f 170 108 107
f 171 101 98
f 98 109 171
f 99 100 172
f 172 50 99
f 50 172 173
f 173 51 50
f 28 174 32
f 32 29 28
f 34 33 175
f 175 96 34
f 167 168 106
f 106 104 167
f 159 158 161
f 161 160 159
f 138 137 176
f 176 177 138
f 150 178 179
f 179 154 150
f 177 180 146
f 146 138 177
f 181 96 175
f 175 182 181
f 40 97 96
f 96 181 40
f 39 97 40
f 178 150 149
f 149 183 178
f 146 180 147
f 184 185 186
f 186 187 184
f 186 188 189
f 189 187 186
f 188 186 185
f 185 190 188
f 185 184 190
f 23 24 54
f 54 114 23
f 191 192 193
f 193 194 191
f 193 195 196
f 196 194 193
f 197 198 194
f 194 196 197
f 194 198 199
f 199 191 194
f 200 201 202
f 202 192 200
f 201 203 204
f 204 202 201
f 205 204 203
f 203 206 205
f 207 202 204
f 204 208 207
f 209 210 211
f 211 212 209
f 213 214 215
f 215 216 213
f 193 192 202
f 202 207 193
f 217 218 198
f 198 197 217
f 199 198 218
f 218 219 199
f 220 221 222
f 222 223 220
f 224 220 223
f 223 225 224
f 195 193 226
f 226 227 195
f 228 208 204
f 204 205 228
f 229 212 211
f 211 230 229
f 231 230 211
f 211 232 231
f 232 211 210
f 210 233 232
f 215 234 221
f 221 220 215
f 216 215 220
f 220 224 216
f 235 229 230
f 230 231 235
f 236 196 195
f 195 237 236
f 238 197 196
f 196 236 238
f 239 217 197
f 197 238 239
f 240 223 222
f 222 241 240
f 242 225 223
f 223 240 242
f 237 195 227
f 227 243 237
f 244 236 237
f 237 245 244
f 246 238 236
f 236 244 246
f 247 239 238
f 238 246 247
f 248 240 241
f 241 249 248
f 250 242 240
f 240 248 250
f 245 237 243
f 243 251 245
f 245 251 252
f 252 244 245
f 246 244 252
f 252 247 246
f 253 254 255
f 255 256 253
f 257 254 253
f 253 258 257
f 257 259 255
f 255 254 257
f 260 261 253
f 253 256 260
f 94 28 27
f 27 85 94
f 105 3 2
f 2 103 105
f 122 121 116
f 116 139 122
f 115 120 116
f 127 124 129
f 129 131 127
f 262 263 264
f 264 265 262
f 264 263 266
f 266 267 264
f 267 266 268
f 268 269 267
f 269 268 270
f 270 271 269
f 272 271 270
f 270 273 272
f 270 274 275
f 275 273 270
f 276 277 278
f 278 279 276
f 19 20 279
f 279 278 19
f 21 19 278
f 278 280 21
f 281 24 21
f 21 280 281
f 282 280 278
f 278 277 282
f 283 274 270
f 270 268 283
f 284 285 286
f 30 32 285
f 285 287 30
f 33 30 287
f 287 288 33
f 289 290 291
f 291 292 289
f 291 293 294
f 294 292 291
f 295 296 297
f 297 298 295
f 296 299 300
f 300 297 296
f 301 288 287
f 287 302 301
f 303 304 305
f 305 306 303
f 307 55 24
f 24 308 307
f 309 310 311
f 311 312 309
f 313 314 315
f 315 316 313
f 317 313 316
f 316 318 317
f 311 310 319
f 319 320 311
f 321 309 312
f 312 322 321
f 268 323 324
f 324 283 268
f 297 300 325
f 325 326 297
f 327 328 326
f 326 325 327
f 297 326 329
f 329 298 297
f 330 331 332
f 332 333 330
f 302 284 325
f 325 300 302
f 334 327 325
f 325 335 334
f 333 336 304
f 304 303 333
f 288 301 337
f 337 338 288
f 301 299 294
f 294 337 301
f 299 296 292
f 292 294 299
f 296 295 289
f 289 292 296
f 295 339 340
f 340 289 295
f 100 101 340
f 340 339 100
f 265 341 307
f 307 308 265
f 265 342 341
f 343 344 264
f 264 267 343
f 343 267 269
f 269 345 343
f 345 269 271
f 271 346 345
f 271 272 347
f 347 346 271
f 290 289 340
f 340 348 290
f 339 295 298
f 298 306 339
f 303 306 298
f 298 329 303
f 329 330 333
f 333 303 329
f 331 330 328
f 328 349 331
f 328 327 350
f 350 349 328
f 327 334 351
f 351 350 327
f 336 333 332
f 332 352 336
f 330 329 326
f 326 328 330
f 285 284 302
f 302 287 285
f 299 301 302
f 302 300 299
f 262 265 308
f 308 353 262
f 320 319 317
f 317 318 320
f 323 268 266
f 354 280 282
f 115 118 355
f 355 356 115
f 115 357 119
f 355 358 356
f 358 359 360
f 360 361 358
f 359 362 363
f 363 360 359
f 359 358 364
f 359 129 128
f 128 362 359
f 355 365 364
f 364 358 355
f 364 365 132
f 132 131 364
f 365 133 132
f 365 355 118
f 118 133 365
f 362 128 134
f 134 363 362
f 366 136 119
f 119 357 366
f 366 367 137
f 137 136 366
f 368 366 357
f 357 356 368
f 368 369 370
f 370 366 368
f 370 369 371
f 371 372 370
f 361 373 369
f 369 368 361
f 360 373 361
f 360 363 374
f 374 373 360
f 369 373 374
f 374 371 369
f 366 370 375
f 375 367 366
f 370 372 375
f 372 376 377
f 377 375 372
f 378 379 380
f 380 381 378
f 153 154 381
f 381 380 153
f 379 382 383
f 383 380 379
f 157 153 380
f 380 383 157
f 158 157 383
f 383 384 158
f 134 161 385
f 385 363 134
f 386 374 363
f 363 385 386
f 385 384 387
f 387 386 385
f 384 383 382
f 382 387 384
f 386 388 371
f 371 374 386
f 386 387 382
f 382 388 386
f 165 342 344
f 344 166 165
f 166 344 343
f 343 167 166
f 168 345 346
f 346 169 168
f 346 347 170
f 170 169 346
f 171 348 340
f 340 101 171
f 339 306 172
f 172 100 339
f 306 305 173
f 173 172 306
f 286 285 32
f 32 174 286
f 288 338 175
f 175 33 288
f 167 343 345
f 345 168 167
f 384 385 161
f 161 158 384
f 367 389 176
f 176 137 367
f 381 154 179
f 179 390 381
f 389 367 375
f 375 391 389
f 392 182 175
f 175 338 392
f 293 392 338
f 338 337 293
f 294 293 337
f 390 393 378
f 378 381 390
f 375 377 391
f 394 395 396
f 396 397 394
f 396 398 399
f 398 396 395
f 399 400 397
f 397 396 399
f 397 400 394
f 281 353 308
f 308 24 281
f 401 402 403
f 403 404 401
f 403 402 405
f 405 406 403
f 407 405 402
f 402 408 407
f 402 401 409
f 409 408 402
f 410 404 411
f 411 412 410
f 412 411 413
f 413 414 412
f 415 416 414
f 414 413 415
f 417 418 413
f 413 411 417
f 419 420 421
f 421 422 419
f 423 424 425
f 425 426 423
f 403 417 411
f 411 404 403
f 427 407 408
f 408 428 427
f 409 429 428
f 428 408 409
f 430 431 432
f 432 433 430
f 434 435 431
f 431 430 434
f 406 436 437
f 437 403 406
f 438 415 413
f 413 418 438
f 439 440 421
f 421 420 439
f 441 442 421
f 421 440 441
f 442 443 422
f 422 421 442
f 425 430 433
f 433 444 425
f 424 434 430
f 430 425 424
f 445 441 440
f 440 439 445
f 446 447 406
f 406 405 446
f 448 446 405
f 405 407 448
f 449 448 407
f 407 427 449
f 450 451 432
f 432 431 450
f 452 450 431
f 431 435 452
f 447 453 436
f 436 406 447
f 454 455 447
f 447 446 454
f 456 454 446
f 446 448 456
f 457 456 448
f 448 449 457
f 458 459 451
f 451 450 458
f 460 458 450
f 450 452 460
f 455 461 453
f 453 447 455
f 455 454 462
f 462 461 455
f 456 457 462
f 462 454 456
f 463 464 465
f 465 466 463
f 257 258 463
f 463 466 257
f 257 466 465
f 465 259 257
f 260 464 463
f 463 261 260
f 335 325 284
f 284 286 335
f 344 342 265
f 265 264 344
f 361 368 356
f 356 358 361
f 115 356 357
f 364 131 129
f 129 359 364
f 467 468 469
f 469 470 467
f 471 467 470
f 470 472 471
f 470 473 474
f 474 472 470
f 475 473 470
f 470 476 475
f 477 478 468
f 468 479 477
f 480 481 482
f 482 483 480
f 471 483 482
f 482 467 471
f 484 485 482
f 482 481 484
f 486 479 482
f 482 485 486
f 469 468 478
f 487 488 474
f 474 473 487
f 489 481 480
f 480 490 489
f 481 489 491
f 491 484 481
f 479 468 467
f 467 482 479
f 476 470 469
f 469 492 476
f 475 493 487
f 487 473 475
f 477 479 486
f 486 494 477
f 477 494 495
f 495 478 477
f 478 495 492
f 492 469 478
f 496 497 498
f 498 499 496
f 500 501 502
f 502 503 500
f 504 499 498
f 498 505 504
f 506 496 499
f 499 507 506
f 508 497 496
f 496 509 508
f 510 498 497
f 497 511 510
f 512 513 514
f 514 515 512
f 516 517 518
f 518 519 516
f 520 521 522
f 522 523 520
f 524 525 526
f 526 527 524
f 528 529 530
f 530 531 528
f 532 533 534
f 534 535 532
f 536 537 538
f 538 539 536
f 540 541 542
f 542 543 540
f 544 545 546
f 546 547 544
f 548 549 550
f 550 551 548
f 552 553 554
f 554 555 552
f 556 557 553
f 553 552 556
f 558 559 553
f 553 557 558
f 560 561 553
f 553 559 560
f 562 563 555
f 555 564 562
f 565 566 567
f 567 568 565
f 556 552 565
f 565 568 556
f 569 566 565
f 565 570 569
f 571 570 565
f 565 563 571
f 554 564 555
f 558 572 573
f 573 559 558
f 567 566 574
f 574 575 567
f 566 569 576
f 576 574 566
f 563 565 552
f 552 555 563
f 561 577 554
f 554 553 561
f 560 559 573
f 573 578 560
f 562 579 571
f 571 563 562
f 562 564 580
f 580 579 562
f 564 554 577
f 577 580 564
f 581 582 583
f 583 584 581
f 585 586 587
f 587 588 585
f 589 590 583
f 583 582 589
f 591 592 582
f 582 581 591
f 593 594 581
f 581 584 593
f 595 596 584
f 584 583 595
f 597 598 599
f 599 600 597
f 601 602 603
f 603 604 601
f 605 606 607
f 607 608 605
f 609 610 611
f 611 612 609
f 613 614 615
f 615 616 613
f 617 618 619
f 619 620 617
f 621 622 623
f 623 624 621
f 625 626 627
f 627 628 625
f 629 630 631
f 631 632 629
f 633 634 635
f 635 636 633
o obj2
v 31.037989 159.233856 8.866852
v 5.549474 169.706268 24.919497
v 5.869235 153.327789 27.634550
v 26.548954 145.567581 9.884138
v 33.540089 134.211868 -9.066893
v 41.109989 141.100128 -9.095412
v 18.568619 77.536079 34.674461
v 20.086571 97.187950 35.539848
v 2.478825 98.660423 43.928844
v -0.684244 76.744019 41.373188
v 11.874907 169.438248 11.567590
v 34.769745 162.182709 -1.482740
v 25.751528 157.822449 -12.699685
v 7.528289 164.931931 -4.349958
v 21.322496 146.271973 -20.284552
v 6.281640 154.269943 -20.679665
v 50.864361 103.705803 -18.356201
v 51.432972 81.271881 -15.682594
v 41.766056 81.368721 -25.891466
v 30.509184 107.060295 -36.073891
v 35.589603 125.593262 -13.474191
v 51.273582 102.851410 2.301732
v 18.757332 136.647934 -32.529366
v 27.479210 137.874466 -12.508360
v 27.076618 145.518036 -13.887899
v 29.839493 140.527939 -2.712131
v 32.291100 133.545319 4.204403
v 27.479210 137.874466 -12.508360
v 28.433430 131.951355 -20.276068
v 27.548420 140.289383 -13.752468
v 26.064171 139.139893 -30.076185
v 23.954359 128.822296 -39.572792
v 42.160488 133.939835 -25.077513
v 43.581947 134.437149 -18.635204
v 31.099115 125.976540 -59.198711
v 34.485207 138.498505 -57.948753
v 42.922649 142.639221 -25.866590
v 31.109102 146.565277 -58.033737
v 31.525963 146.312836 -34.602592
v 26.002729 144.145737 -56.095947
v 27.329580 145.549423 -34.514420
v 27.329580 145.549423 -34.514420
v 26.002729 144.145737 -56.095947
v 20.441683 138.255234 -55.172943
v 40.886719 153.146393 -17.125393
v 30.764910 152.276947 -20.308901
v 25.781240 146.104919 -20.575701
v 21.200876 127.509720 -55.832130
v 27.076618 145.518036 -13.887899
v 25.781240 146.104919 -20.575701
v 7.114531 137.874908 -35.319996
v 23.027487 134.109146 17.309212
v 35.813282 121.803818 11.916908
v 35.589603 125.593262 -13.474191
v 40.818977 98.920883 25.738728
v 51.273582 102.851410 2.301732
v 46.401428 78.596039 27.634806
v 55.441807 80.907257 4.800781
v 21.618498 120.528824 24.600733
v 4.364262 121.958672 32.968983
v 4.939178 137.300323 27.351553
v 55.441807 80.907257 4.800781
v -18.492685 163.391632 33.288319
v -20.187212 141.113708 33.925888
v -44.864677 134.426132 38.950951
v -37.854683 131.787674 41.955276
v -18.058752 81.251968 40.778385
v -15.127303 101.326729 44.404636
v -8.166101 169.846619 20.057068
v -12.151597 162.080826 3.459338
v -27.925976 155.966812 6.641213
v -31.079430 164.922943 25.553793
v -29.402273 148.775940 -7.585656
v -18.962868 152.154327 -11.756813
v -62.070042 108.211700 -8.493287
v -48.189327 109.184273 -17.150154
v -55.843357 87.172783 -7.690516
v -67.972961 84.230980 -7.327433
v -38.238052 123.236961 7.343497
v -38.084602 133.159286 -13.946531
v -58.615799 103.805809 2.940964
v -33.973213 131.744293 6.754734
v -33.626591 130.565186 11.411942
v -33.973213 131.744293 6.754734
v -27.392515 129.214142 22.393316
v -27.378092 132.386612 24.619013
v -31.635971 122.055237 34.281754
v -41.848415 122.405876 42.979919
v -49.837341 125.545914 38.862179
v -59.037121 99.107185 30.827864
v -49.263088 132.208130 30.412918
v -59.226151 103.894913 17.233274
v -49.116943 103.140427 15.670317
v -42.963856 127.750229 19.677496
v -34.607651 117.064240 21.642624
v -37.126240 101.460495 28.662996
v -41.727386 96.580627 26.633678
v -37.126240 101.460495 28.662996
v -34.607651 117.064240 21.642624
v -48.504997 98.823631 34.228069
v -33.626591 130.565186 11.411942
v -29.381596 136.407135 -22.195070
v -14.152030 133.089844 32.317406
v -29.578417 118.751457 22.533995
v -38.238052 123.236961 7.343497
v -33.957741 102.257584 24.943705
v -58.615799 103.805809 2.940964
v -69.214714 82.339081 -2.325602
v -38.980083 81.548233 16.721107
v -12.997024 121.589981 36.190430
v -69.214714 82.339081 -2.325602
f 637 638 639
f 639 640 637
f 640 641 642
f 642 637 640
f 643 644 645
f 645 646 643
f 647 648 649
f 649 650 647
f 651 652 650
f 650 649 651
f 653 654 655
f 655 656 653
f 657 658 653
f 653 659 657
f 660 657 659
f 659 651 660
f 661 662 663
f 663 664 661
f 665 641 666
f 666 667 665
f 668 669 670
f 670 665 668
f 671 672 673
f 673 669 671
f 674 675 673
f 673 672 674
f 675 674 676
f 676 677 675
f 667 678 679
f 679 680 667
f 673 670 669
f 647 638 637
f 637 648 647
f 648 637 642
f 642 681 648
f 649 648 681
f 681 682 649
f 667 666 683
f 683 678 667
f 684 671 669
f 669 668 684
f 667 680 684
f 684 668 667
f 667 668 665
f 685 649 682
f 682 686 685
f 651 649 685
f 685 660 651
f 659 687 652
f 652 651 659
f 659 653 656
f 656 687 659
f 662 640 688
f 688 663 662
f 689 690 664
f 664 663 689
f 691 692 690
f 690 689 691
f 691 693 694
f 694 692 691
f 691 644 643
f 643 693 691
f 644 695 696
f 696 645 644
f 688 697 696
f 696 695 688
f 688 640 639
f 639 697 688
f 695 689 663
f 663 688 695
f 695 644 691
f 691 689 695
f 654 653 658
f 658 698 654
f 699 700 639
f 639 638 699
f 701 702 700
f 700 699 701
f 703 646 645
f 645 704 703
f 705 706 707
f 707 708 705
f 709 707 706
f 706 710 709
f 711 712 713
f 713 714 711
f 715 716 711
f 711 717 715
f 718 709 716
f 716 715 718
f 719 720 721
f 721 722 719
f 722 700 702
f 702 723 722
f 724 702 701
f 701 725 724
f 726 725 727
f 727 728 726
f 729 728 727
f 727 730 729
f 730 731 732
f 732 729 730
f 723 733 734
f 734 735 723
f 727 725 701
f 705 708 699
f 699 638 705
f 701 699 708
f 708 727 701
f 727 708 707
f 707 730 727
f 722 723 735
f 735 719 722
f 736 724 725
f 725 726 736
f 723 724 736
f 736 733 723
f 723 702 724
f 730 707 737
f 737 731 730
f 718 737 707
f 707 709 718
f 716 709 710
f 710 738 716
f 716 738 712
f 712 711 716
f 722 721 739
f 739 700 722
f 740 721 720
f 720 741 740
f 742 740 741
f 741 743 742
f 742 743 744
f 744 745 742
f 742 745 703
f 703 704 742
f 704 645 696
f 696 746 704
f 739 746 696
f 696 697 739
f 739 697 639
f 639 700 739
f 746 739 721
f 721 740 746
f 746 740 742
f 742 704 746
f 714 747 717
f 717 711 714
f 641 665 670
f 670 642 641
f 641 640 662
f 662 666 641
f 670 673 681
f 681 642 670
f 673 675 682
f 682 681 673
f 666 662 661
f 661 683 666
f 675 677 686
f 686 682 675
